<?xml version="1.0" encoding="utf-8"?>
<!-- Generator: Adobe Illustrator 22.1.0, SVG Export Plug-In . SVG Version: 6.00 Build 0)  -->
<svg version="1.1" id="OBJECTS" xmlns="http://www.w3.org/2000/svg" xmlns:xlink="http://www.w3.org/1999/xlink" x="0px" y="0px"
	 viewBox="0 0 500 500" style="enable-background:new 0 0 500 500;" xml:space="preserve">
<style type="text/css">
	.st0{fill:#FFCE01;}
	.st1{fill:#F9A21B;}
	.st2{fill:#893B42;}
	.st3{fill:#F26D21;}
	.st4{fill:#FFDD51;}
	.st5{fill:#F48361;}
	.st6{fill:#F05922;}
	.st7{fill:#89441F;}
</style>
<g>
	<g>
		<path class="st0" d="M230.2,283.6c0,0,9.9,43.8,5.8,45.6c-1.9,0.8-6.2-2.1-6.2-2.1s-1.7,4.5-4.3,3.2c-2.6-1.3-3.6-4.3-3.6-4.3
			s-1.7,5.3-5.8,3.4c-4-1.9-4.9-5.5-4.9-5.5s-2.3,6.8-5.8,5.8c-3.4-1.1-4-6.6-4-6.6s-5.8,9.2-8.1,6c-2.3-3.2,7.5-41.1,11.5-46.4
			C214.9,275.1,230.2,283.6,230.2,283.6z"/>
		<path class="st1" d="M203.1,305.9c0.5-3.1,1.1-6.1,1.9-9.1c0.7-2.9,1.5-5.9,2.4-8.8c0.9-3,1.8-6.2,3.1-9c0.8-1.8,3.6-0.5,3.1,1.3
			c-0.8,2.9-1.9,5.8-2.8,8.7c-0.9,2.9-1.7,5.8-2.4,8.8c-0.7,2.9-1.4,5.7-2.1,8.6c-0.7,2.9-1.2,6-2.6,8.6c-0.2,0.4-0.9,0.3-1-0.1
			C202,311.8,202.6,308.8,203.1,305.9z"/>
		<path class="st1" d="M213.4,299.1c0.3-2.6,0.6-5.1,1-7.6c0.2-1.3,0.3-2.6,0.5-3.9c0.2-1.2,0.1-2.6,0.8-3.7
			c0.7-1.1,2.3-0.9,2.7,0.3c0.4,1.2,0,2.6-0.2,3.8c-0.2,1.3-0.4,2.6-0.6,3.9c-0.4,2.5-0.7,5.1-1.1,7.6c-0.8,4.9-1.3,10.2-3.3,14.8
			c-0.1,0.2-0.5,0.2-0.6-0.1C211.9,309.2,212.8,304,213.4,299.1z"/>
		<path class="st1" d="M222.5,301.2c0-5-0.1-10,0.3-15c0.2-2,3-2,3.1,0c0.2,5-0.2,10-0.3,15c-0.1,2.5-0.2,5-0.4,7.5
			c-0.1,1.1-0.2,2.2-0.3,3.3c-0.1,1.1-0.1,2.4-0.7,3.4c-0.2,0.3-0.5,0.3-0.7,0c-0.5-1-0.5-2.1-0.6-3.2c-0.1-1.2-0.2-2.3-0.2-3.5
			C222.5,306.2,222.4,303.7,222.5,301.2z"/>
		<path class="st1" d="M229.6,285c0.4,2.4,0.5,4.9,0.7,7.3c0.2,2.3,0.4,4.6,0.5,7c0.3,4.8,0.6,9.6,0.5,14.4c0,0.5-0.7,0.6-0.8,0.1
			c-1-4.6-1.5-9.4-2.1-14c-0.3-2.3-0.6-4.6-0.8-7c-0.3-2.5-0.7-5-0.7-7.5C226.8,283.9,229.3,283.4,229.6,285z"/>
	</g>
	<g>
		<path class="st2" d="M252.5,285.7c-0.6,0.3-5.7,3.7,16.4,10.1C270.7,295.1,256.5,283.7,252.5,285.7z"/>
		<path class="st1" d="M278.4,267.3c-0.1,0-12.1,19.2-23.1,21.3c-6.2,1-7.2-3.2-8.1-7.4c-0.9-4.3,11.2-17.8,12-18.7
			C260,261.6,278.4,267.3,278.4,267.3z"/>
		<path class="st2" d="M267.8,294.6c0,0,5,0.8,4.9,5.5c-0.1,4.8-5.4,8.1-6.3,5.5c-0.9-2.5,2.7-2.9,3.4-5.8
			C270.7,296.5,267.8,294.6,267.8,294.6z"/>
		<path class="st2" d="M268.9,295.8c-0.3-0.5,3.4-2.5,7.7,0.3c4.4,2.8,2.9,9.3-0.5,7.7c-1.7-0.8-0.2-2.5-1.4-4.7
			C272.5,294.7,269.2,296.3,268.9,295.8z"/>
		<path class="st2" d="M269,295.9c-0.6-0.1,0.3-4.2,5.3-5.7c5-1.5,8.9,3.9,5.5,5.4c-1.7,0.7-2.1-1.5-4.5-2.1
			C270.5,292.5,269.6,296,269,295.9z"/>
		<path class="st2" d="M269,295.9c0,0-6.4,0.2-5.8,4.2c-0.1,2-2.5,2.6-3,1.6c-0.6-1-1.6-3.4,1.1-5.7
			C264,293.6,269.5,294.6,269,295.9z"/>
	</g>
	<g>
		<path class="st1" d="M282.2,250.4c5.1-5.2,9.1-6.3,13.1-6.9c2-0.3,3.9-0.5,6-1c6.3-1.5,9.6-2.8,12.9-9.3c4-0.3,8.3-4.8,12.6-14.1
			c3.8-2,5.8-5.8,8.6-12.9c5.8-2.8,7.3-6,10.1-17.1c5-3.5,6-9.1,4.5-16.4c-2.8,5.2-10.8,10.3-19.7,14.8
			c-11.2,5.8-23.8,10.8-28.7,14.6c-8.8,6.8-13.4,16.4-13.9,17.9C287.7,220.1,284.7,227.9,282.2,250.4z"/>
		<path class="st2" d="M295.3,243.5c2-0.3,3.9-0.5,6-1c6.3-1.5,9.6-2.8,12.9-9.3c4-0.3,8.3-4.8,12.6-14.1c3.8-2,5.8-5.8,8.6-12.9
			c5.8-2.8,7.3-6,10.1-17.1c5-3.5,6-9.1,4.5-16.4c-2.8,5.2-10.8,10.3-19.7,14.8c2.2,1.4,5.3,4.8,0.9,11c-1.3,4.4-3.6,9.2-10.6,13.4
			c-2,6.6-3.3,10.2-12.8,15.2c-6.9,3.7-9.1,5-9.1,5s2.6,1.5,1.2,5.4C299.1,239.8,297.4,241.6,295.3,243.5z"/>
		<path class="st3" d="M287.2,230.8c0.5-1.3,1.1-2.6,1.7-3.9c0.5-1.3,1.1-2.6,1.8-3.8c1.4-2.4,3.1-4.7,4.9-6.7
			c3.9-4.4,8.6-7.9,13.8-10.5c10.5-5.4,22.6-7.9,32.2-15.1c5.5-4.1,9.9-10.4,7.6-17.5c-0.1-0.4,0.5-0.8,0.8-0.3
			c2.6,5.1,0.8,11.6-2.7,15.9c-3.8,4.6-9.3,7.5-14.6,9.9c-11.2,5.1-23.3,8.4-32.7,16.6c-2.5,2.2-4.7,4.6-6.6,7.2
			c-1,1.3-1.9,2.6-2.8,4c-1,1.5-1.6,3.1-2.3,4.7C288,231.7,287,231.3,287.2,230.8z"/>
		<path class="st3" d="M326.1,207.7c2.1-0.8,4.3-1.1,6.4-1.9c2.1-0.9,4.2-2.2,5.8-3.7c3.5-3.3,5.3-7.4,6.2-12
			c0.1-0.5,0.9-0.4,0.9,0.1c0.3,5-2.1,10.2-5.6,13.7c-1.8,1.8-4,3.1-6.3,4c-2.3,0.9-5,1.6-7.4,0.8
			C325.7,208.5,325.7,207.9,326.1,207.7z"/>
		<path class="st3" d="M316.1,220.2c1-0.3,2.1-0.3,3.1-0.4c1-0.1,2-0.3,3-0.6c2.1-0.6,4.2-1.6,5.9-3c1.6-1.3,3-2.8,4-4.6
			c1-1.7,1.6-3.6,2.4-5.5c0.1-0.3,0.6-0.1,0.6,0.2c0.2,4.3-3,8.8-6.2,11.5c-1.8,1.5-3.8,2.6-6.1,3.3c-2.1,0.6-4.9,1.3-7,0.4
			C315.3,221.2,315.6,220.4,316.1,220.2z"/>
		<path class="st3" d="M303.5,234.9c2.6-0.3,5.1-0.5,7.6-1.2c2.5-0.8,4.9-2,7-3.7c4-3.1,6.7-7.5,8.3-12.2c0.1-0.4,0.7-0.2,0.6,0.2
			c-0.7,5.3-3.9,10.3-8.1,13.6c-4.1,3.2-10.3,5.7-15.6,4.6C302.6,235.9,302.8,234.9,303.5,234.9z"/>
		<path class="st3" d="M282.5,247.4c4.6-3.9,11.4-4.2,17-5.4c2.9-0.6,5.8-1.4,8.4-3c1.1-0.7,2.1-1.5,3.1-2.4c1-1,1.5-2.2,2.4-3.2
			c0.2-0.3,0.7-0.1,0.7,0.3c-0.2,2.4-2.4,4.7-4.2,6.1c-2.2,1.8-4.9,3-7.6,3.8c-3.1,1-6.4,1.5-9.7,2.2c-1.6,0.3-3.1,0.7-4.6,1.2
			c-1.6,0.5-3,1.3-4.5,2C282.7,249.3,281.6,248.1,282.5,247.4z"/>
		<path class="st3" d="M287.1,233.7c7.9-13.5,25.2-16.2,36.5-25.8c1.5-1.3,2.9-2.7,4.2-4.2c1.3-1.6,2.2-3.4,3.4-5.1
			c0.2-0.3,0.7-0.1,0.6,0.3c-0.5,3.2-2.9,6.3-5,8.6c-2.3,2.6-5.2,4.9-8.1,6.8c-6.7,4.4-14.3,7.2-21,11.6c-3.5,2.4-6.7,5.3-9.2,8.7
			C288,235.4,286.5,234.7,287.1,233.7z"/>
		<path class="st3" d="M287.9,238.5c1.9-2.9,5.3-4.9,8.2-6.6c3.3-1.9,6.7-3.4,10-5.1c3.3-1.7,6.5-3.7,9.1-6.3
			c1.2-1.2,2.3-2.6,3.2-4.1c0.9-1.4,1.4-3,2.1-4.5c0.2-0.4,0.7-0.2,0.7,0.2c0.2,3.2-2,6.5-4,8.8c-2.4,2.8-5.4,5-8.6,6.7
			c-3.4,1.9-7,3.5-10.5,5.4c-1.6,0.9-3.2,1.8-4.7,2.8c-1.6,1.1-3.1,2.4-4.6,3.6C288.3,239.9,287.5,239.1,287.9,238.5z"/>
	</g>
	<g>
		<path class="st0" d="M203.8,284.9c13.4,2.9,28.3,4.4,41.5,1.9c5.2-1,10.2-2.6,14.7-4.9c15.9-8.3,23.2-14.9,28.7-40.3
			c5.5-25.5-2.1-50.8-8.3-54.7c-9.7-6.1-22.6-6-34.5-3.5c-16.9,3.6-31.7,12-32.3,14.1c-1,3.3,5.3,1.7,6,1.5c-0.6,0.2-5,1.7-5.5,4.3
			c-0.5,2.8,6.6,1.3,6.6,1.3l-2,45.1c0,0-2.4,10.2-10.2,26.2C207.1,278.7,205.5,281.7,203.8,284.9z"/>
		<path class="st1" d="M263.9,244.8c3.2,0.4,5.8-1.5,7.1-4.4c0.7-1.5,0.9-3.2,1-4.8c0.1-1.6-0.3-3.3-0.1-4.9c0-0.2,0.4-0.2,0.5-0.1
			c1.1,1.7,1.3,4.2,1.5,6.2c0.1,2-0.2,4-1,5.8c-1.6,3.6-5.4,6.1-9.3,5.2C261.9,247.3,262.2,244.6,263.9,244.8z"/>
		<path class="st1" d="M256.1,248c1.5-0.1,2.8,0.2,4.2-0.5c1.3-0.6,2.2-1.7,2.9-2.9c1.6-2.9,1.9-6,2.4-9.2c0.1-0.5,0.9-0.5,0.9,0
			c0.6,3.9,0.6,8.4-1.7,11.8c-1.9,2.8-6.5,5.5-9.6,3C254.3,249.4,255.1,248,256.1,248z"/>
		<path class="st1" d="M249.4,251.1c1.2-0.2,2.4-0.3,3.5-0.9c1.1-0.6,2.1-1.5,2.8-2.5c1.7-2.5,1.9-5.5,1.9-8.4
			c0-0.5,0.8-0.7,0.9-0.1c0.6,3.4,0.7,7.1-1,10.3c-1.5,2.7-4.8,5.2-8.1,4.4C248.1,253.5,248,251.4,249.4,251.1z"/>
		<path class="st1" d="M203.6,285.3c13.4,2.9,28.3,4.4,41.5,1.9c-0.9-0.5-10.8-1.3-10.8-1.3s8.6-5,8.7-6.6
			c0.1-1.4-18.7,0.9-34.6-3.1C206.9,279.1,205.4,282.1,203.6,285.3z"/>
		<path class="st4" d="M245.2,286.8c5.2-1,10.2-2.6,14.7-4.9c15.9-8.3,23.2-14.9,28.7-40.3c5.5-25.5-2.1-50.8-8.3-54.7
			c-9.7-6.1-22.6-6-34.5-3.5c9.5-0.7,25.4-0.3,32,10c4.5,8.9,11.1,41-0.5,63.3C267.9,275.2,256,282.3,245.2,286.8z"/>
	</g>
	<g>
		<g>
			<path class="st5" d="M261.4,205.5c0,0-2-0.8-3.9,0.3c-1.8,1.2-2.3,4.8-0.6,6.4C259.3,210,261.4,205.5,261.4,205.5z"/>
			<path class="st2" d="M267.8,203.3c0,0-0.1,3.3-1.6,7.7c1.6,3.8,2.8,7.6,2.6,7.8c-6-2.3-10.7-5.3-10.6-7.3
				C258.2,209.5,267.1,203,267.8,203.3z"/>
			<path class="st6" d="M267.8,203.3c0,0-7,6.7-6.8,9.2c0.1,1.4,7.8,6.3,7.8,6.3s-9.4-0.2-11.5-4.1
				C254.3,209.2,263.1,203.1,267.8,203.3z"/>
		</g>
		<g>
			<circle class="st5" cx="241.8" cy="214" r="5.8"/>
			<path class="st5" d="M271.7,210.9c0,3.2,2.6,5.8,5.8,5.8c3.2,0,5.8-2.6,5.8-5.8c0-3.2-2.6-5.8-5.8-5.8
				C274.3,205.1,271.7,207.7,271.7,210.9z"/>
		</g>
		<g>
			<path class="st2" d="M252.3,201l1.5-1.6c0,0-2.4-1-5.9,0.8c-3.7,2-4.3,5.7-4.3,5.7s3.8-4.3,9.9-2.8
				C253.3,202,252.3,201,252.3,201z"/>
			<path class="st7" d="M251.3,195.2l-2.4-0.5l1.9-1.7c0,0-7.1,0.6-8.2,4.7C245.4,196.1,248.5,196.6,251.3,195.2z"/>
		</g>
		<g>
			<path class="st2" d="M268,198.8l-1.8-0.8c0,0,2.1-1.6,5.7-1.2c3.9,0.5,5.3,3.3,5.3,3.3s-4.5-2.3-9.9,0.8
				C267.4,199.9,268,198.8,268,198.8z"/>
			<path class="st7" d="M264.4,192.9l2.2-1.2l-2.3-1c0,0,7-1.6,9.3,2C270.4,192,267.6,193.4,264.4,192.9z"/>
		</g>
	</g>
	<g>
		<path class="st1" d="M138.3,204c-0.2,2.2,6.7,9.4,13.3,9.4c2.4,5.9,5.4,7.1,8.1,7.6c0.7,4.2,3.2,6.4,7.7,7.7
			c0.8,4.5,5.2,9.4,14.5,9.2c6.7,5.9,7.7,13.5,29.5,16.1c3.5,0.4,7.6,0.7,12.4,0.9c4.9,0,12.4-0.8,5.3-14.4
			c-5.3-10.1-24.8-33.9-26.6-34.4c-2.4-0.5-21.1-1.8-37.7-2.5C150.8,203.2,138.4,203,138.3,204z"/>
		<path class="st2" d="M138.3,204c-0.2,2.2,6.7,9.4,13.3,9.4c2.4,5.9,5.4,7.1,8.1,7.6c0.7,4.2,3.2,6.4,7.7,7.7
			c0.8,4.5,5.2,9.4,14.5,9.2c6.7,5.9,7.7,13.5,29.5,16.1c-1.8-2.3-2.3-5.1-1.9-7.9c-3.4-1.2-6.6-3.7-6-8.9c-6.6-1.5-9.1-3-10.2-7.7
			c-8.2-2-8.9-3.9-10.3-9.6c-6-1.2-8.6-4.7-8.4-8.4c-4.1-0.4-8.1-5.4-9.8-7.8C150.8,203.2,138.4,203,138.3,204z"/>
		<path class="st3" d="M138.5,204.2c2.4,2.5,5.2,5.2,8.6,6c3.5,0.9,6.8,1.5,10.4,1.6c9.2,0.3,18.2-2.2,27.3-1.8
			c5,0.3,14.7,1.5,15.1,1.8c2.6,2.3,6.3,6,8.5,8.7c2.2,2.7,4.5,5.3,6.6,8.1c2.1,2.7,4.1,5.4,6.1,8.1c1,1.4,2,2.7,3,4.1
			c1,1.4,2,2.8,2.7,4.4c0.1,0.3-0.3,0.5-0.5,0.3c-1.1-1.1-2-2.4-3-3.7c-1.1-1.4-2.2-2.9-3.3-4.3c-2.1-2.7-4.4-5.3-6.7-7.9
			c-2.2-2.5-4.5-5-6.9-7.4c-2.5-2.4-7.5-7.5-7.6-7.6c-2.2-0.4-4.3-1-6.5-1.3c-2.3-0.3-4.7-0.5-7.1-0.5c-4.8,0-9.6,0.6-14.4,1.3
			c-7.9,1.1-17.1,2.3-24.4-1.8c-3.4-1.9-6.9-4.1-8.6-7.7C138,204.3,138.3,204,138.5,204.2z"/>
		<path class="st3" d="M174.7,212.5c1.1,3.1,3.8,5.2,6.9,6c1.8,0.5,3.7,0.6,5.5,0.6c2,0,4-0.3,6-0.2c0.4,0,0.4,0.5,0.1,0.6
			c-2,0.8-4.4,1.2-6.6,1.3c-2.2,0.1-4.4-0.1-6.4-0.8c-3.2-1.2-6.2-3.6-6.9-7.2C173.1,211.9,174.4,211.6,174.7,212.5z"/>
		<path class="st3" d="M183.7,219.9c0.5,3.6,2.9,6,6.3,7.2c3.7,1.3,7.4,0.7,11.2,0.9c0.2,0,0.3,0.3,0.1,0.4c-4,1.4-9,1.7-13,0.1
			c-3.4-1.4-6.3-4.5-6.3-8.4C181.9,219.2,183.5,218.9,183.7,219.9z"/>
		<path class="st3" d="M193.6,229.3c0.6,2.8,2.7,5,5.3,6.1c3.3,1.4,6.8,0.9,10.2,1.2c0.5,0.1,0.6,0.7,0.1,0.9
			c-6.3,1.9-16.5,0-17.2-8C192,228.6,193.4,228.4,193.6,229.3z"/>
		<path class="st3" d="M204.1,237.4c0.4,2.4,1.2,4.9,3.1,6.6c2.2,1.9,5.3,2.7,8.2,2.3c0.6-0.1,0.9,0.8,0.3,1
			c-6.3,1.5-13.2-3-13.9-9.6C201.6,236.4,203.9,236,204.1,237.4z"/>
		<path class="st3" d="M167.3,227.5c0.2-0.2,0.5-0.3,0.8-0.1c0.9,0.5,1,1.8,1.3,2.7c0.5,1.2,1.3,2.2,2.2,3c2.1,1.8,4.9,2.6,7.6,2.9
			c2.9,0.3,5.8,0.1,8.8,0.1c3.2-0.1,6.4-0.2,9.6-0.1c0.5,0,0.7,0.9,0.1,1c-3.5,0.5-6.9,0.9-10.4,1.3c-3.3,0.4-6.7,0.6-10,0
			c-2.9-0.5-5.7-1.9-7.7-4C168.3,232.9,165.5,229.2,167.3,227.5z"/>
		<path class="st3" d="M159.2,220.5c0.1-1.1,1.7-1.1,1.8,0c0.5,5.9,7.1,7.2,11.9,7.7c2.8,0.3,5.6,0.4,8.5,0.3c1.4,0,2.7-0.1,4.1-0.2
			c1.5-0.1,3.1-0.3,4.6-0.2c0.3,0,0.5,0.4,0.2,0.6c-2.8,1.2-6.3,1.3-9.3,1.4c-3.4,0.1-6.9,0-10.3-0.4
			C165.6,229.1,158.8,226.6,159.2,220.5z"/>
		<path class="st3" d="M151.7,213.5c1.1,2.1,2.9,4,5.2,4.7c2.6,0.9,5.5,0.9,8.1,1c2.8,0.2,5.6,0.3,8.4,0.4c3,0.1,6-0.1,8.9,0.2
			c0.6,0.1,0.8,0.9,0.1,1.1c-3.1,0.7-6.4,0.7-9.6,0.7c-3.4,0-6.8-0.1-10.2-0.3c-2.8-0.2-5.9-0.3-8.4-1.7c-2.2-1.2-3.5-3.4-3.6-5.9
			C150.8,213.3,151.5,213.1,151.7,213.5z"/>
	</g>
	<g>
		<path class="st0" d="M235.8,277.7c-0.6,8.2-9.5,14.7-16.6,13.5c-10.4-1.8-1.5-15.6,2.6-18.7S236.4,269.5,235.8,277.7z"/>
		<g>
			<path class="st2" d="M216.2,287.2c-0.6,0.3-5.7,3.7,16.4,10.1C234.4,296.6,220.2,285.2,216.2,287.2z"/>
			<path class="st2" d="M231.5,296.1c0,0,5,0.8,4.9,5.5c-0.1,4.8-5.4,8.1-6.3,5.5s2.7-2.9,3.4-5.8
				C234.4,298,231.5,296.1,231.5,296.1z"/>
			<path class="st2" d="M232.6,297.3c-0.3-0.5,3.4-2.5,7.7,0.3c4.4,2.8,2.9,9.3-0.5,7.7c-1.7-0.8-0.2-2.5-1.4-4.7
				C236.2,296.2,232.9,297.8,232.6,297.3z"/>
			<path class="st2" d="M232.7,297.4c-0.6-0.1,0.3-4.2,5.3-5.7c5-1.5,8.9,3.9,5.5,5.4c-1.7,0.7-2.1-1.5-4.5-2.1
				C234.2,294,233.3,297.5,232.7,297.4z"/>
			<path class="st2" d="M232.7,297.4c0,0-6.4,0.2-5.8,4.2c-0.1,2-2.5,2.6-3,1.6c-0.6-1-1.6-3.4,1.1-5.7
				C227.7,295.1,233.2,296.1,232.7,297.4z"/>
		</g>
	</g>
</g>
</svg>
