<?xml version="1.0" encoding="utf-8"?>
<!-- Generator: Adobe Illustrator 22.1.0, SVG Export Plug-In . SVG Version: 6.00 Build 0)  -->
<svg version="1.1" id="Слой_1" xmlns="http://www.w3.org/2000/svg" xmlns:xlink="http://www.w3.org/1999/xlink" x="0px" y="0px"
	 viewBox="0 0 3200 2000" style="enable-background:new 0 0 3200 2000;" xml:space="preserve">
<style type="text/css">
	.st0{fill:#E7F3FE;}
	.st1{fill:#A2DFF2;}
	.st2{fill:#96CFE0;}
	.st3{fill:#2E5B9A;}
	.st4{fill:#F09959;}
	.st5{fill:#E38540;}
	.st6{fill:#75A1DE;}
	.st7{fill:#A86B48;}
	.st8{fill:#3E6BAB;}
	.st9{fill:#F0CEB4;}
	.st10{fill:#A8CEFF;}
	.st11{fill:#F7A96F;}
	.st12{fill:#B7E1FF;}
	.st13{fill:#FFFFFF;}
	.st14{fill:#9EC8FF;}
	.st15{fill:#9CD499;}
</style>
<g>
	<path class="st0" d="M1674.4,850.5c0,0-116.8-144.8-46.7-282.6c70.1-137.8,203.2-105.1,390-245.2
		c226.8-170.1,386.1-179.5,588.5-105.1c114.4,42,133.1,214.9,315.3,322.3c164.2,96.9,30.4,261.6-56.1,287.3
		c-86.4,25.7-144.8,25.7-144.8,25.7L1674.4,850.5z"/>
	<path class="st1" d="M2369.6,539.2c-29.1,59.2-65.7,220.8-75.7,229.7c-10,8.9-67.5,43.2-77.5,59.8c-10,16.6-5.5,11.1-1.1,12.2
		c4.4,1.1,254.7,2.2,254.7,2.2s-28.8-171.6-32.1-172.7C2434.6,669.2,2369.6,539.2,2369.6,539.2z"/>
	<path class="st2" d="M2328.2,842.3c46,0.3,94.5,0.6,121.2,0.7l-36.6-218.6c-19.5-37.8-43.2-85.2-43.2-85.2
		c-3.7,7.5-7.5,16.5-11.3,26.8c-3.8,164.2,19.9,210.2,2.1,239.5C2346.5,828.3,2333.9,838.5,2328.2,842.3z"/>
	<path class="st3" d="M2847.8,854.1H1646c-5.1,0-9.3-4.2-9.3-9.3c0-5.1,4.2-9.3,9.3-9.3h1201.7c5.1,0,9.3,4.2,9.3,9.3
		C2857.1,849.9,2852.9,854.1,2847.8,854.1z"/>
	<path class="st1" d="M2523.1,467.8c41.6,38.4,134.1,74.8,134.1,74.8s14.1,129.9,4.5,203.4c-9.6,73.5-4.3,88.5-4.3,88.5h-190.8
		c0,0-25.6-35.5-72.5-146c-29.8-70.3-24.5-149.2-24.5-149.2l116.2-52.2L2523.1,467.8z"/>
	<path class="st2" d="M2466.6,834.4h190.8c0,0-5.3-14.9,4.3-88.5c7.9-60.6-0.2-159.3-3.4-192.3l-17.4-7.4
		c-43.6,12.6-68.7,77.5-76,141c-4.9,42.5-75.3,84.3-121.4,107.3C2458.6,823.4,2466.6,834.4,2466.6,834.4z"/>
	<path class="st3" d="M2419.8,334.5c-23,51.2,4.6,98.7,3.8,96.7c-0.8-2,34.8-86.5,34.8-86.5L2419.8,334.5z"/>
	<path class="st4" d="M2507,372.4l29.2,106.6c0.8,3,0.1,6.2-1.8,8.6c-6.8,8.4-16.6,25.8-36.2,31.3c-3.8,1.1-8.5,1.4-12.3,1.4
		c-4,0-7.5-2.8-8.2-6.7L2458,412.4L2507,372.4z"/>
	<path class="st5" d="M2501.4,381.3l-10.7,4.4l-32.8,26.8l17.6,89.6C2505.4,483.5,2509.7,470.9,2501.4,381.3z"/>
	<path class="st4" d="M2505.9,419.5c-6.5,35.1-32.7,58.8-58.6,53c-25.9-5.8-38.3-28.5-35.2-74c2.4-35.7,20-74.5,45.9-68.7
		C2483.9,335.6,2512.3,384.4,2505.9,419.5z"/>
	<path class="st1" d="M2657.2,542.5c38.6,8.7,45.8,87.1,58.3,169.8c1.4,9.5,8.9,90.1,8.9,90.1s0.7,14.8-14,22.1
		c-12.6,6.3-17.7,11.1-90.8,11.8c-70.2,0.7-160.7-2.2-160.7-2.2s-0.8-26.1,6.4-38.9c10.8-19.2,121.8-46.8,132.2-48.2
		c1.5-20.7-10.2-95.5,5.9-146.2c11.1-34.9,23-53.2,37.9-57.9C2646.1,541.3,2651.4,541.3,2657.2,542.5z"/>
	<path class="st2" d="M2498.5,835.8c34.6,0.5,82.1,1,121,0.6c73.1-0.7,78.2-5.5,90.8-11.8c14.8-7.4,15.5-19.9,15.5-19.9
		s-7.5-85.7-8.9-95.2c-8.1-55.4-16.9-118.7-37.3-149.3c19.2,56.3,22.3,103.7,22.6,124c0.2,10.3-0.8,24.3-3.8,34.2
		c-3.3,10.9-11.8,17.7-25.1,14c-26.6-7.4-59.8,8.1-59.8,8.1s25.1-8.9,48.7-0.7c23.6,8.1,72.4,62,19.2,81.9
		C2665.3,827.7,2567.8,832.7,2498.5,835.8z"/>
	<path class="st2" d="M2471.1,797.7c0,0,9.8-16.7,30-16.7c20.2,0,18.7,33,15.8,43.8c-3,10.8-14.8,11.3-14.8,11.3l-43.3-2
		L2471.1,797.7z"/>
	<path class="st6" d="M2427.2,843.7h-273c-4.1,0-7.5-3.4-7.5-7.5V834c0-4.1,3.4-7.5,7.5-7.5h273c4.1,0,7.5,3.4,7.5,7.5v2.2
		C2434.7,840.3,2431.3,843.7,2427.2,843.7z"/>
	<path class="st4" d="M2465.7,799.7c-42.3-15.3-53.4-9.5-63-12.3c-23.6-6.9-29.5-1-44.8,40.9c-3,8.3,5.9,8.9,14.8,8.9
		s19.7-17.2,23.1-19.2c3.4-2,12.8-3,12.8-3s-3,0-7.4,8.9c-4.4,8.9-9.8,12.3-3,12.3s7.9-11.3,20.7-8.9c12.8,2.5,7.9,8.9,39.9,8.4
		c32-0.5,56.1,0,55.6-19.2c-0.5-18.2,1.5-27.3-15.8-30.5C2485.4,783.5,2465.7,799.7,2465.7,799.7z"/>
	<path class="st7" d="M2466.3,799.7c28.3-3.2,20,32.1,17,35s15.8,1,15.8,1s8.8-14.1,1.4-30.4c-7.4-16.2-22.1-17-22.1-17l-12.6,6.9
		L2466.3,799.7z"/>
	<path class="st3" d="M2495.8,796.6c-0.4,4.4-7.8,7.3-16.6,6.6c-8.8-0.7-15.6-4.9-15.3-9.2c0.4-4.4,7.8-7.3,16.6-6.6
		C2489.3,788.1,2496.2,792.3,2495.8,796.6z"/>
	<path class="st8" d="M2493.6,794.5c-0.3,3.9-7,6.5-14.8,5.9c-7.9-0.7-14-4.4-13.6-8.3c0.3-3.9,7-6.5,14.8-5.9
		C2487.8,786.9,2493.9,790.6,2493.6,794.5z"/>
	<path class="st9" d="M2488.7,792.7c-0.2,2.8-5,4.7-10.7,4.2c-5.7-0.5-10-3.1-9.8-5.9c0.2-2.8,5-4.7,10.7-4.2
		C2484.5,787.2,2488.9,789.9,2488.7,792.7z"/>
	<g>
		<path class="st6" d="M2144.2,789.6h-275.1c-14.5,0-26.9-10.5-29.5-24.9l-35.9-198c-3.4-18.7,10.8-35.9,29.5-35.9h275.1
			c14.5,0,26.9,10.5,29.5,24.9l35.9,198C2177.1,772.4,2162.9,789.6,2144.2,789.6z"/>
		<path class="st10" d="M2157,754.4l-36.6-193.9c-2.7-14.1-15.3-24.4-30.1-24.4h-279.5c-5.9,6.8-8.8,16.1-7,25.9l37.1,202.2
			c2.7,14.7,15.5,25.4,30.5,25.4h255.5C2146,789.6,2160.5,772.7,2157,754.4z"/>
		<path class="st6" d="M2090.7,816.1h-52.2c-9.3,0-16.9-8.3-16.9-18.5v-95.5c0-16.3-12-29.5-26.8-29.5h-27.3
			c-14.8,0-26.8,13.2-26.8,29.5V809c0,18.3,13.5,33.1,30.2,33l142.5-1C2113.4,827.2,2103.2,816.1,2090.7,816.1z"/>
		<path class="st10" d="M1942.8,704.2v105.3c0,17.1,13.3,31.1,30.1,32.4l139.1-0.9c0-2.3-11-6.4-24.5-6.4h-56.5
			c-10.1,0-18.2-8.2-18.2-18.2V704.2c0-16-13-29-29-29h-11.9C1955.8,675.2,1942.8,688.2,1942.8,704.2z"/>
	</g>
	<path class="st4" d="M2233.9,804c21-11.7,46.7-7.8,56,3.9c9.3,11.7,10.9,19.5-10.1,19.5s-63.1,1.6-70.1,0.8
		C2202.7,827.3,2233.9,804,2233.9,804z"/>
	<path class="st4" d="M2265,796.9c22.6-5.4,38,7.7,56.8,20.2c16.3,10.9,19.6,21.5,1.6,12.5c-26.5-13.2-42-14.8-42-14.8L2265,796.9z"
		/>
	<path class="st4" d="M2244.4,803.9c-11.4,0-21.4-3.6-29.4-3c-8,0.7-33.5,26.8-29.5,28.8c0.3,0.1,0.6,0.3,0.9,0.4
		c6.1,2.2,12.9-0.2,16.3-5.7c3.6-5.8,9.5-12.5,16.3-10.1c11.4,4,23.4,3.6,23.4,3.6L2244.4,803.9z"/>
	<path class="st11" d="M2237.8,832c-11.7-4.7,7-43.6,13.2-43.6s29.6,18.7,29.6,18.7s-5.5,3.1-24.1-3.1c-4.7-1.6-8.6,24.9-14,28
		C2237,835.1,2237.8,832,2237.8,832z"/>
	<path class="st3" d="M2412,419c-1.1,42.9,13.5,50.1,23.7,55.9c10.2,5.8,54.2-3.8,60.7-14.4c16.5-27.1,2.6-52.4,6.3-52
		c3.7,0.4,7.1,10.9,16.7,24.6c0.9,1.3,7.2,9.7,7.5,6.9c4.5-38.4,24.5-50.3,19.7-89.1c-3.5-28.6-21.7-26.3-21.7-26.3
		s-11.7-23.9-48.2-21.2c-24.4,1.8-46.2,11.3-71.4,17.8c-25.2,6.5,29.8,63.6,62.5,42.7c32.7-20.9,16.5,25.1,21.7,28.7
		c5.2,3.6,2.5,0.5,4.8,24c2.4,23.5-27.5,38.9-36.1,40.9c-27.4,6.4-31.9,1.9-37.9-8.4C2415.2,440.1,2412,419,2412,419z"/>
	<path class="st4" d="M2525.3,405.7c-3.1,10.8-10.8,17.8-17.1,15.6c-6.3-2.2-6.5-11-5.8-23.5c0.7-11.3,10.8-17.8,17.1-15.6
		C2525.9,384.4,2528.4,394.9,2525.3,405.7z"/>
	<g>
		<g>
			<path class="st12" d="M1927.3,376.7h-233.6c-2.5,0-4.6-2.1-4.6-4.6V271.5c0-2.5,2.1-4.6,4.6-4.6h233.6c2.5,0,4.6,2.1,4.6,4.6
				v100.5C1931.9,374.6,1929.8,376.7,1927.3,376.7z"/>
			<path class="st13" d="M1921.5,371.5h-222.1c-2.1,0-3.7-1.7-3.7-3.7v-68.3c0-2.1,1.7-3.7,3.7-3.7h222.1c2.1,0,3.7,1.7,3.7,3.7
				v68.3C1925.2,369.9,1923.6,371.5,1921.5,371.5z"/>
			<g>
				<path class="st13" d="M1706.5,283.6h-5.4c-1.1,0-2.1-0.9-2.1-2.1v-4.4c0-1.1,0.9-2.1,2.1-2.1h5.4c1.1,0,2.1,0.9,2.1,2.1v4.4
					C1708.5,282.7,1707.6,283.6,1706.5,283.6z"/>
				<path class="st13" d="M1723.8,283.6h-5.4c-1.1,0-2.1-0.9-2.1-2.1v-4.4c0-1.1,0.9-2.1,2.1-2.1h5.4c1.1,0,2.1,0.9,2.1,2.1v4.4
					C1725.8,282.7,1724.9,283.6,1723.8,283.6z"/>
				<path class="st13" d="M1741.1,283.6h-5.4c-1.1,0-2.1-0.9-2.1-2.1v-4.4c0-1.1,0.9-2.1,2.1-2.1h5.4c1.1,0,2.1,0.9,2.1,2.1v4.4
					C1743.1,282.7,1742.2,283.6,1741.1,283.6z"/>
			</g>
			<path class="st12" d="M1915.9,312.4h-121.4c-2,0-3.6-1.6-3.6-3.6c0-2,1.6-3.6,3.6-3.6h121.4c2,0,3.6,1.6,3.6,3.6
				C1919.5,310.7,1917.9,312.4,1915.9,312.4z"/>
			<path class="st12" d="M1824.5,368.4h-121.4c-2,0-3.6-1.6-3.6-3.6c0-2,1.6-3.6,3.6-3.6h121.4c2,0,3.6,1.6,3.6,3.6
				C1828.2,366.8,1826.5,368.4,1824.5,368.4z"/>
			<path class="st12" d="M1846.9,368.4h-12.6c-0.7,0-1.2-0.6-1.2-1.2v-4.8c0-0.7,0.6-1.2,1.2-1.2h12.6c0.7,0,1.2,0.6,1.2,1.2v4.8
				C1848.2,367.9,1847.6,368.4,1846.9,368.4z"/>
			<path class="st12" d="M1865.9,368.4h-12.6c-0.7,0-1.2-0.6-1.2-1.2v-4.8c0-0.7,0.6-1.2,1.2-1.2h12.6c0.7,0,1.2,0.6,1.2,1.2v4.8
				C1867.1,367.9,1866.5,368.4,1865.9,368.4z"/>
			<path class="st12" d="M1917,328.2H1716c-1.4,0-2.5-1.1-2.5-2.5c0-1.4,1.1-2.5,2.5-2.5H1917c1.4,0,2.5,1.1,2.5,2.5
				C1919.5,327.1,1918.4,328.2,1917,328.2z"/>
			<path class="st12" d="M1917,338.8H1716c-1.4,0-2.5-1.1-2.5-2.5s1.1-2.5,2.5-2.5H1917c1.4,0,2.5,1.1,2.5,2.5
				S1918.4,338.8,1917,338.8z"/>
		</g>
		<g>
			<path class="st14" d="M1982.1,453.8h-233.6c-2.5,0-4.6-2.1-4.6-4.6V348.6c0-2.5,2.1-4.6,4.6-4.6h233.6c2.5,0,4.6,2.1,4.6,4.6
				v100.5C1986.7,451.7,1984.7,453.8,1982.1,453.8z"/>
			<path class="st13" d="M1976.4,448.6h-222.1c-2.1,0-3.7-1.7-3.7-3.7v-68.3c0-2.1,1.7-3.7,3.7-3.7h222.1c2.1,0,3.7,1.7,3.7,3.7
				v68.3C1980.1,446.9,1978.4,448.6,1976.4,448.6z"/>
			<g>
				<path class="st13" d="M1761.3,360.6h-5.4c-1.1,0-2.1-0.9-2.1-2.1v-4.4c0-1.1,0.9-2.1,2.1-2.1h5.4c1.1,0,2.1,0.9,2.1,2.1v4.4
					C1763.4,359.7,1762.5,360.6,1761.3,360.6z"/>
				<path class="st13" d="M1778.6,360.6h-5.4c-1.1,0-2.1-0.9-2.1-2.1v-4.4c0-1.1,0.9-2.1,2.1-2.1h5.4c1.1,0,2.1,0.9,2.1,2.1v4.4
					C1780.7,359.7,1779.8,360.6,1778.6,360.6z"/>
				<path class="st13" d="M1795.9,360.6h-5.4c-1.1,0-2.1-0.9-2.1-2.1v-4.4c0-1.1,0.9-2.1,2.1-2.1h5.4c1.1,0,2.1,0.9,2.1,2.1v4.4
					C1798,359.7,1797.1,360.6,1795.9,360.6z"/>
			</g>
			<path class="st14" d="M1970.8,389.4h-121.4c-2,0-3.6-1.6-3.6-3.6c0-2,1.6-3.6,3.6-3.6h121.4c2,0,3.6,1.6,3.6,3.6
				C1974.4,387.8,1972.8,389.4,1970.8,389.4z"/>
			<path class="st14" d="M1879.4,445.5H1758c-2,0-3.6-1.6-3.6-3.6c0-2,1.6-3.6,3.6-3.6h121.4c2,0,3.6,1.6,3.6,3.6
				C1883.1,443.9,1881.4,445.5,1879.4,445.5z"/>
			<path class="st14" d="M1901.8,445.5h-12.6c-0.7,0-1.2-0.6-1.2-1.2v-4.8c0-0.7,0.6-1.2,1.2-1.2h12.6c0.7,0,1.2,0.6,1.2,1.2v4.8
				C1903,444.9,1902.5,445.5,1901.8,445.5z"/>
			<path class="st14" d="M1920.7,445.5h-12.6c-0.7,0-1.2-0.6-1.2-1.2v-4.8c0-0.7,0.6-1.2,1.2-1.2h12.6c0.7,0,1.2,0.6,1.2,1.2v4.8
				C1922,444.9,1921.4,445.5,1920.7,445.5z"/>
			<path class="st14" d="M1971.9,405.3h-201.1c-1.4,0-2.5-1.1-2.5-2.5c0-1.4,1.1-2.5,2.5-2.5h201.1c1.4,0,2.5,1.1,2.5,2.5
				C1974.4,404.2,1973.3,405.3,1971.9,405.3z"/>
			<path class="st14" d="M1971.9,415.9h-201.1c-1.4,0-2.5-1.1-2.5-2.5c0-1.4,1.1-2.5,2.5-2.5h201.1c1.4,0,2.5,1.1,2.5,2.5
				C1974.4,414.8,1973.3,415.9,1971.9,415.9z"/>
		</g>
	</g>
	<g>
		<path class="st15" d="M2073.1,426.9c0,17.4-14.1,31.5-31.5,31.5c-17.4,0-31.5-14.1-31.5-31.5c0-17.4,14.1-31.5,31.5-31.5
			C2059,395.4,2073.1,409.5,2073.1,426.9z"/>
		<g>
			<path class="st13" d="M2038.5,438.5C2038.5,438.5,2038.4,438.5,2038.5,438.5c-0.7,0-1.4-0.3-1.8-0.8l-8.6-9.7
				c-0.9-1-0.8-2.5,0.2-3.4c1-0.9,2.5-0.8,3.4,0.2l6.9,7.8l16.5-16.1c0.9-0.9,2.5-0.9,3.4,0c0.9,0.9,0.9,2.5,0,3.4l-18.3,17.9
				C2039.7,438.3,2039.1,438.5,2038.5,438.5z"/>
		</g>
	</g>
	<g>
		<path class="st14" d="M2275.1,280.5h-200.4c-5.1,0-9.3-4.2-9.3-9.3v-71.6c0-5.1,4.2-9.3,9.3-9.3h200.4c5.1,0,9.3,4.2,9.3,9.3v71.6
			C2284.5,276.3,2280.3,280.5,2275.1,280.5z"/>
		<path class="st14" d="M2091.8,266.8v49.8l57.4-57.4C2149.2,259.2,2093,266.8,2091.8,266.8z"/>
		<path class="st13" d="M2265.2,271.5h-180.6c-4.4,0-7.9-3.6-7.9-7.9V207c0-4.4,3.6-7.9,7.9-7.9h180.6c4.4,0,7.9,3.6,7.9,7.9v56.6
			C2273.1,267.9,2269.6,271.5,2265.2,271.5z"/>
		<path class="st14" d="M2183.7,217h-88.7c-2.1,0-3.9-1.8-3.9-3.9c0-2.1,1.8-3.9,3.9-3.9h88.7c2.1,0,3.9,1.8,3.9,3.9
			C2187.5,215.3,2185.8,217,2183.7,217z"/>
		<path class="st14" d="M2257.8,231.9h-164.6c-1.2,0-2.2-1-2.2-2.2v0c0-1.2,1-2.2,2.2-2.2h164.6c1.2,0,2.2,1,2.2,2.2v0
			C2259.9,230.9,2259,231.9,2257.8,231.9z"/>
		<path class="st14" d="M2257.8,240.4h-164.6c-1.2,0-2.2-1-2.2-2.2v0c0-1.2,1-2.2,2.2-2.2h164.6c1.2,0,2.2,1,2.2,2.2v0
			C2259.9,239.4,2259,240.4,2257.8,240.4z"/>
		<g>
			<path class="st14" d="M2223.8,268.4h-5.4c-1.1,0-2.1-0.9-2.1-2.1v-4.4c0-1.1,0.9-2.1,2.1-2.1h5.4c1.1,0,2.1,0.9,2.1,2.1v4.4
				C2225.8,267.5,2224.9,268.4,2223.8,268.4z"/>
			<path class="st14" d="M2241.1,268.4h-5.4c-1.1,0-2.1-0.9-2.1-2.1v-4.4c0-1.1,0.9-2.1,2.1-2.1h5.4c1.1,0,2.1,0.9,2.1,2.1v4.4
				C2243.1,267.5,2242.2,268.4,2241.1,268.4z"/>
			<path class="st14" d="M2258.4,268.4h-5.4c-1.1,0-2.1-0.9-2.1-2.1v-4.4c0-1.1,0.9-2.1,2.1-2.1h5.4c1.1,0,2.1,0.9,2.1,2.1v4.4
				C2260.4,267.5,2259.5,268.4,2258.4,268.4z"/>
		</g>
	</g>
</g>
</svg>
