<svg width="3200" height="1999.9999999999998" xmlns="http://www.w3.org/2000/svg">
 <style type="text/css">.st0{fill:#E7F3FE;}
	.st1{fill:#A2DFF2;}
	.st2{fill:#96CFE0;}
	.st3{fill:#2E5B9A;}
	.st4{fill:#F09959;}
	.st5{fill:#E38540;}
	.st6{fill:#75A1DE;}
	.st7{fill:#A86B48;}
	.st8{fill:#3E6BAB;}
	.st9{fill:#F0CEB4;}
	.st10{fill:#A8CEFF;}
	.st11{fill:#F7A96F;}
	.st12{fill:#B7E1FF;}
	.st13{fill:#FFFFFF;}
	.st14{fill:#9EC8FF;}
	.st15{fill:#9CD499;}</style>

 <g>
  <title>Layer 1</title>
  <g stroke="null" id="svg_1">
   <path stroke="null" class="st0" d="m1215.19785,1109.48884c0,0 -70.59395,-87.51715 -28.22549,-170.8035c42.36846,-83.28635 122.81412,-63.52246 235.71608,-148.19893c137.07797,-102.80848 233.35892,-108.48984 355.68953,-63.52246c69.14338,25.38481 80.44567,129.88561 190.56739,194.79819c99.24252,58.56638 18.37377,158.1111 -33.90685,173.64418c-52.22018,15.53309 -87.51715,15.53309 -87.51715,15.53309l-632.32351,-1.45056z" id="svg_2"/>
   <path stroke="null" class="st1" d="m1635.37688,921.33906c-17.58805,35.78049 -39.70909,133.45157 -45.7531,138.83073c-6.044,5.37916 -40.79701,26.11009 -46.84102,36.14313c-6.044,10.03304 -3.3242,6.70884 -0.66484,7.37368c2.65936,0.66484 153.94074,1.32968 153.94074,1.32968s-17.40673,-103.71508 -19.40125,-104.37992c-1.99452,-0.72528 -41.28053,-79.29731 -41.28053,-79.29731z" id="svg_3"/>
   <path stroke="null" class="st2" d="m1610.35471,1104.53276c27.80241,0.18132 57.11582,0.36264 73.25331,0.42308l-22.12105,-132.12189c-11.7858,-22.84633 -26.11009,-51.4949 -26.11009,-51.4949c-2.23628,4.533 -4.533,9.9726 -6.82972,16.19793c-2.29672,99.24252 12.02756,127.04493 1.26924,144.75385c-8.40116,13.78032 -16.01661,19.94521 -19.46169,22.24193z" id="svg_4"/>
   <path stroke="null" class="st3" d="m1924.40106,1111.66468l-726.36818,0c-3.08244,0 -5.62092,-2.53848 -5.62092,-5.62092c0,-3.08244 2.53848,-5.62092 5.62092,-5.62092l726.30774,0c3.08244,0 5.62092,2.53848 5.62092,5.62092c0.06044,3.08244 -2.47804,5.62092 -5.56048,5.62092z" id="svg_5"/>
   <path stroke="null" class="st1" d="m1728.15231,878.18488c25.14305,23.20897 81.05007,45.20914 81.05007,45.20914s8.52204,78.51159 2.7198,122.935c-5.80224,44.42342 -2.59892,53.48942 -2.59892,53.48942l-115.31956,0c0,0 -15.47265,-21.45621 -43.81902,-88.24243c-18.01113,-42.48934 -14.80781,-90.17651 -14.80781,-90.17651l70.23131,-31.54969l22.54413,-11.66492z" id="svg_6"/>
   <path stroke="null" class="st2" d="m1694.0037,1099.758l115.31956,0c0,0 -3.20332,-9.00556 2.59892,-53.48942c4.77476,-36.62665 -0.12088,-96.28095 -2.05496,-116.22616l-10.51656,-4.47256c-26.35185,7.61544 -41.52229,46.84102 -45.93442,85.22043c-2.96156,25.68701 -45.51134,50.95094 -73.37419,64.85214c9.12644,17.46717 13.96165,24.11557 13.96165,24.11557z" id="svg_7"/>
   <path stroke="null" class="st3" d="m1665.71777,797.61833c-13.90121,30.94529 2.78024,59.6543 2.29672,58.4455c-0.48352,-1.2088 21.03313,-52.28062 21.03313,-52.28062l-23.32985,-6.16488z" id="svg_8"/>
   <path stroke="null" class="st4" d="m1718.42147,820.5251l17.64849,64.42906c0.48352,1.8132 0.06044,3.74728 -1.08792,5.19784c-4.10992,5.07696 -10.03304,15.59353 -21.87929,18.91773c-2.29672,0.66484 -5.1374,0.84616 -7.43412,0.84616c-2.4176,0 -4.533,-1.69232 -4.95608,-4.04948l-11.90668,-61.1653l29.61561,-24.17601z" id="svg_9"/>
   <path stroke="null" class="st5" d="m1715.03683,825.90426l-6.46708,2.65936l-19.82433,16.19793l10.63744,54.15426c18.07157,-11.24184 20.67049,-18.85729 15.65397,-73.01155z" id="svg_10"/>
   <path stroke="null" class="st4" d="m1717.75663,848.99235c-3.9286,21.21445 -19.76389,35.53873 -35.41785,32.03321c-15.65397,-3.50552 -23.14853,-17.22541 -21.27489,-44.72562c1.45056,-21.57709 12.088,-45.02782 27.74197,-41.52229c15.65397,3.50552 32.81893,33.00025 28.95077,54.2147z" id="svg_11"/>
   <path stroke="null" class="st1" d="m1809.20238,923.33358c23.32985,5.25828 27.68153,52.64326 35.23653,102.62716c0.84616,5.7418 5.37916,54.45646 5.37916,54.45646s0.42308,8.94512 -8.4616,13.35724c-7.61544,3.80772 -10.69788,6.70884 -54.87954,7.13192c-42.4289,0.42308 -97.12711,-1.32968 -97.12711,-1.32968s-0.48352,-15.77485 3.86816,-23.51117c6.52752,-11.60448 73.61595,-28.28593 79.90171,-29.13209c0.9066,-12.51108 -6.16488,-57.72022 3.56596,-88.36331c6.70884,-21.09357 13.90121,-32.15409 22.90677,-34.99477c2.90112,-0.96704 6.10444,-0.96704 9.60996,-0.24176z" id="svg_12"/>
   <path stroke="null" class="st2" d="m1713.28406,1100.60416c20.91225,0.3022 49.62126,0.6044 73.13243,0.36264c44.18166,-0.42308 47.2641,-3.3242 54.87954,-7.13192c8.94512,-4.47256 9.3682,-12.02756 9.3682,-12.02756s-4.533,-51.7971 -5.37916,-57.5389c-4.89564,-33.48377 -10.21436,-71.74231 -22.54413,-90.23695c11.60448,34.02773 13.47812,62.6763 13.65944,74.94563c0.12088,6.22532 -0.48352,14.68693 -2.29672,20.67049c-1.99452,6.58796 -7.13192,10.69788 -15.17045,8.4616c-16.07705,-4.47256 -36.14313,4.89564 -36.14313,4.89564s15.17045,-5.37916 29.43429,-0.42308c14.26385,4.89564 43.75858,37.47281 11.60448,49.50038c-9.73084,3.6264 -68.65986,6.6484 -110.5448,8.52204z" id="svg_13"/>
   <path stroke="null" class="st2" d="m1696.7235,1077.57651c0,0 5.92312,-10.09348 18.13201,-10.09348c12.20888,0 11.30228,19.94521 9.54952,26.47273c-1.8132,6.52752 -8.94512,6.82972 -8.94512,6.82972l-26.17053,-1.2088l7.43412,-22.00017z" id="svg_14"/>
   <path stroke="null" class="st6" d="m1670.19033,1105.37892l-165.00126,0c-2.47804,0 -4.533,-2.05496 -4.533,-4.533l0,-1.32968c0,-2.47804 2.05496,-4.533 4.533,-4.533l165.00126,0c2.47804,0 4.533,2.05496 4.533,4.533l0,1.32968c0,2.47804 -2.05496,4.533 -4.533,4.533z" id="svg_15"/>
   <path stroke="null" class="st4" d="m1693.45974,1078.78531c-25.56613,-9.24732 -32.27497,-5.7418 -38.07721,-7.43412c-14.26385,-4.17036 -17.82981,-0.6044 -27.07713,24.71997c-1.8132,5.01652 3.56596,5.37916 8.94512,5.37916s11.90668,-10.39568 13.96165,-11.60448c2.05496,-1.2088 7.73632,-1.8132 7.73632,-1.8132s-1.8132,0 -4.47256,5.37916c-2.65936,5.37916 -5.92312,7.43412 -1.8132,7.43412s4.77476,-6.82972 12.51108,-5.37916c7.73632,1.511 4.77476,5.37916 24.11557,5.07696c19.34081,-0.3022 33.90685,0 33.60465,-11.60448c-0.3022,-11.00008 0.9066,-16.50013 -9.54952,-18.43421c-7.97808,-1.511 -19.88477,8.28028 -19.88477,8.28028z" id="svg_16"/>
   <path stroke="null" class="st7" d="m1693.82238,1078.78531c17.10453,-1.93408 12.088,19.40125 10.2748,21.15401s9.54952,0.6044 9.54952,0.6044s5.31872,-8.52204 0.84616,-18.37377c-4.47256,-9.79128 -13.35724,-10.2748 -13.35724,-10.2748l-7.61544,4.17036l0.3022,2.7198z" id="svg_17"/>
   <path stroke="null" class="st3" d="m1711.65218,1076.91167c-0.24176,2.65936 -4.71432,4.41212 -10.03304,3.98904c-5.31872,-0.42308 -9.42864,-2.96156 -9.24732,-5.56048c0.24176,-2.65936 4.71432,-4.41212 10.03304,-3.98904c5.31872,0.42308 9.48908,2.96156 9.24732,5.56048z" id="svg_18"/>
   <path stroke="null" class="st8" d="m1710.3225,1075.64243c-0.18132,2.35716 -4.2308,3.9286 -8.94512,3.56596c-4.77476,-0.42308 -8.4616,-2.65936 -8.21984,-5.01652c0.18132,-2.35716 4.2308,-3.9286 8.94512,-3.56596c4.71432,0.42308 8.40116,2.65936 8.21984,5.01652z" id="svg_19"/>
   <path stroke="null" class="st9" d="m1707.36094,1074.55451c-0.12088,1.69232 -3.022,2.84068 -6.46708,2.53848c-3.44508,-0.3022 -6.044,-1.87364 -5.92312,-3.56596c0.12088,-1.69232 3.022,-2.84068 6.46708,-2.53848c3.38464,0.24176 6.044,1.87364 5.92312,3.56596z" id="svg_20"/>
   <g stroke="null" id="svg_21">
    <path stroke="null" class="st6" d="m1499.14507,1072.68087l-166.2705,0c-8.7638,0 -16.25837,-6.3462 -17.82981,-15.04957l-21.69797,-119.67124c-2.05496,-11.30228 6.52752,-21.69797 17.82981,-21.69797l166.2705,0c8.7638,0 16.25837,6.3462 17.82981,15.04957l21.69797,119.67124c2.05496,11.30228 -6.52752,21.69797 -17.82981,21.69797z" id="svg_22"/>
    <path stroke="null" class="st10" d="m1506.88139,1051.40598l-22.12105,-117.1932c-1.63188,-8.52204 -9.24732,-14.74737 -18.19245,-14.74737l-168.92986,0c-3.56596,4.10992 -5.31872,9.73084 -4.2308,15.65397l22.42325,122.20972c1.63188,8.88468 9.3682,15.35177 18.43421,15.35177l154.42426,0c11.54404,0 20.30785,-10.21436 18.19245,-21.27489z" id="svg_23"/>
    <path stroke="null" class="st6" d="m1466.80966,1088.69748l-31.54969,0c-5.62092,0 -10.21436,-5.01652 -10.21436,-11.1814l0,-57.72022c0,-9.85172 -7.2528,-17.82981 -16.19793,-17.82981l-16.50013,0c-8.94512,0 -16.19793,7.97808 -16.19793,17.82981l0,64.61038c0,11.06052 8.1594,20.00565 18.25289,19.94521l86.12703,-0.6044c0,-8.34072 -6.16488,-15.04957 -13.71988,-15.04957z" id="svg_24"/>
    <path stroke="null" class="st10" d="m1377.41886,1021.06509l0,63.64334c0,10.33524 8.03852,18.79685 18.19245,19.58257l84.07207,-0.54396c0,-1.39012 -6.6484,-3.86816 -14.80781,-3.86816l-34.14861,0c-6.10444,0 -11.00008,-4.95608 -11.00008,-11.00008l0,-67.8137c0,-9.6704 -7.8572,-17.52761 -17.52761,-17.52761l-7.19236,0c-9.73084,0 -17.58805,7.8572 -17.58805,17.52761z" id="svg_25"/>
   </g>
   <path stroke="null" class="st4" d="m1553.35977,1081.38423c12.6924,-7.07148 28.22549,-4.71432 33.84641,2.35716c5.62092,7.07148 6.58796,11.7858 -6.10444,11.7858s-38.13765,0.96704 -42.36846,0.48352c-4.2308,-0.54396 14.62649,-14.62649 14.62649,-14.62649z" id="svg_26"/>
   <path stroke="null" class="st4" d="m1572.15661,1077.09299c13.65944,-3.26376 22.96721,4.65388 34.32993,12.20888c9.85172,6.58796 11.84624,12.9946 0.96704,7.555c-16.01661,-7.97808 -25.38481,-8.94512 -25.38481,-8.94512l-9.91216,-10.81876z" id="svg_27"/>
   <path stroke="null" class="st4" d="m1559.70597,1081.32379c-6.89016,0 -12.93416,-2.17584 -17.76937,-1.8132c-4.8352,0.42308 -20.24741,16.19793 -17.82981,17.40673c0.18132,0.06044 0.36264,0.18132 0.54396,0.24176c3.68684,1.32968 7.79676,-0.12088 9.85172,-3.44508c2.17584,-3.50552 5.7418,-7.555 9.85172,-6.10444c6.89016,2.4176 14.14297,2.17584 14.14297,2.17584l1.2088,-8.4616z" id="svg_28"/>
   <path stroke="null" class="st11" d="m1555.71693,1098.30744c-7.07148,-2.84068 4.2308,-26.35185 7.97808,-26.35185s17.89025,11.30228 17.89025,11.30228s-3.3242,1.87364 -14.56605,-1.87364c-2.84068,-0.96704 -5.19784,15.04957 -8.4616,16.92321c-3.3242,1.87364 -2.84068,0 -2.84068,0z" id="svg_29"/>
   <path stroke="null" class="st3" d="m1661.00345,848.69015c-0.66484,25.92877 8.1594,30.28045 14.32429,33.78597c6.16488,3.50552 32.75849,-2.29672 36.68709,-8.70336c9.9726,-16.37925 1.57144,-31.67057 3.80772,-31.42881c2.23628,0.24176 4.29124,6.58796 10.09348,14.86825c0.54396,0.78572 4.35168,5.86268 4.533,4.17036c2.7198,-23.20897 14.80781,-30.40133 11.90668,-53.85206c-2.1154,-17.28585 -13.11548,-15.89573 -13.11548,-15.89573s-7.07148,-14.44517 -29.13209,-12.81328c-14.74737,1.08792 -27.92329,6.82972 -43.15418,10.75832c-15.23089,3.9286 18.01113,38.43985 37.77501,25.80789c19.76389,-12.63196 9.9726,15.17045 13.11548,17.34629c3.14288,2.17584 1.511,0.3022 2.90112,14.50561c1.45056,14.20341 -16.62101,23.51117 -21.81885,24.71997c-16.56057,3.86816 -19.28037,1.14836 -22.90677,-5.07696c-3.08244,-5.4396 -5.01652,-18.19245 -5.01652,-18.19245z" id="svg_30"/>
   <path stroke="null" class="st4" d="m1729.48199,840.65163c-1.87364,6.52752 -6.52752,10.75832 -10.33524,9.42864c-3.80772,-1.32968 -3.9286,-6.6484 -3.50552,-14.20341c0.42308,-6.82972 6.52752,-10.75832 10.33524,-9.42864c3.86816,1.32968 5.37916,7.67588 3.50552,14.20341z" id="svg_31"/>
   <g stroke="null" id="svg_32">
    <g stroke="null" id="svg_33">
     <path stroke="null" class="st12" d="m1368.05066,823.12402l-141.18789,0c-1.511,0 -2.78024,-1.26924 -2.78024,-2.78024l0,-60.80266c0,-1.511 1.26924,-2.78024 2.78024,-2.78024l141.18789,0c1.511,0 2.78024,1.26924 2.78024,2.78024l0,60.74222c0,1.57144 -1.26924,2.84068 -2.78024,2.84068z" id="svg_34"/>
     <path stroke="null" class="st13" d="m1364.54514,819.98114l-134.23729,0c-1.26924,0 -2.23628,-1.02748 -2.23628,-2.23628l0,-41.28053c0,-1.26924 1.02748,-2.23628 2.23628,-2.23628l134.23729,0c1.26924,0 2.23628,1.02748 2.23628,2.23628l0,41.28053c0,1.26924 -0.96704,2.23628 -2.23628,2.23628z" id="svg_35"/>
     <g stroke="null" id="svg_36">
      <path stroke="null" class="st13" d="m1234.59909,766.85436l-3.26376,0c-0.66484,0 -1.26924,-0.54396 -1.26924,-1.26924l0,-2.65936c0,-0.66484 0.54396,-1.26924 1.26924,-1.26924l3.26376,0c0.66484,0 1.26924,0.54396 1.26924,1.26924l0,2.65936c-0.06044,0.72528 -0.6044,1.26924 -1.26924,1.26924z" id="svg_37"/>
      <path stroke="null" class="st13" d="m1245.05522,766.85436l-3.26376,0c-0.66484,0 -1.26924,-0.54396 -1.26924,-1.26924l0,-2.65936c0,-0.66484 0.54396,-1.26924 1.26924,-1.26924l3.26376,0c0.66484,0 1.26924,0.54396 1.26924,1.26924l0,2.65936c-0.06044,0.72528 -0.6044,1.26924 -1.26924,1.26924z" id="svg_38"/>
      <path stroke="null" class="st13" d="m1255.51134,766.85436l-3.26376,0c-0.66484,0 -1.26924,-0.54396 -1.26924,-1.26924l0,-2.65936c0,-0.66484 0.54396,-1.26924 1.26924,-1.26924l3.26376,0c0.66484,0 1.26924,0.54396 1.26924,1.26924l0,2.65936c-0.06044,0.72528 -0.6044,1.26924 -1.26924,1.26924z" id="svg_39"/>
     </g>
     <path stroke="null" class="st12" d="m1361.1605,784.26109l-73.37419,0c-1.2088,0 -2.17584,-0.96704 -2.17584,-2.17584c0,-1.2088 0.96704,-2.17584 2.17584,-2.17584l73.37419,0c1.2088,0 2.17584,0.96704 2.17584,2.17584c0,1.14836 -0.96704,2.17584 -2.17584,2.17584z" id="svg_40"/>
     <path stroke="null" class="st12" d="m1305.91832,818.1075l-73.37419,0c-1.2088,0 -2.17584,-0.96704 -2.17584,-2.17584c0,-1.2088 0.96704,-2.17584 2.17584,-2.17584l73.37419,0c1.2088,0 2.17584,0.96704 2.17584,2.17584c0.06044,1.2088 -0.96704,2.17584 -2.17584,2.17584z" id="svg_41"/>
     <path stroke="null" class="st12" d="m1319.45688,818.1075l-7.61544,0c-0.42308,0 -0.72528,-0.36264 -0.72528,-0.72528l0,-2.90112c0,-0.42308 0.36264,-0.72528 0.72528,-0.72528l7.61544,0c0.42308,0 0.72528,0.36264 0.72528,0.72528l0,2.90112c0.06044,0.42308 -0.3022,0.72528 -0.72528,0.72528z" id="svg_42"/>
     <path stroke="null" class="st12" d="m1330.94049,818.1075l-7.61544,0c-0.42308,0 -0.72528,-0.36264 -0.72528,-0.72528l0,-2.90112c0,-0.42308 0.36264,-0.72528 0.72528,-0.72528l7.61544,0c0.42308,0 0.72528,0.36264 0.72528,0.72528l0,2.90112c0,0.42308 -0.36264,0.72528 -0.72528,0.72528z" id="svg_43"/>
     <path stroke="null" class="st12" d="m1361.82534,793.81061l-121.48444,0c-0.84616,0 -1.511,-0.66484 -1.511,-1.511c0,-0.84616 0.66484,-1.511 1.511,-1.511l121.48444,0c0.84616,0 1.511,0.66484 1.511,1.511c0,0.84616 -0.66484,1.511 -1.511,1.511z" id="svg_44"/>
     <path stroke="null" class="st12" d="m1361.82534,800.21725l-121.48444,0c-0.84616,0 -1.511,-0.66484 -1.511,-1.511s0.66484,-1.511 1.511,-1.511l121.48444,0c0.84616,0 1.511,0.66484 1.511,1.511s-0.66484,1.511 -1.511,1.511z" id="svg_45"/>
    </g>
    <g stroke="null" id="svg_46">
     <path stroke="null" class="st14" d="m1401.17179,869.72328l-141.18789,0c-1.511,0 -2.78024,-1.26924 -2.78024,-2.78024l0,-60.80266c0,-1.511 1.26924,-2.78024 2.78024,-2.78024l141.18789,0c1.511,0 2.78024,1.26924 2.78024,2.78024l0,60.74222c0,1.57144 -1.2088,2.84068 -2.78024,2.84068z" id="svg_47"/>
     <path stroke="null" class="st13" d="m1397.72671,866.5804l-134.23729,0c-1.26924,0 -2.23628,-1.02748 -2.23628,-2.23628l0,-41.28053c0,-1.26924 1.02748,-2.23628 2.23628,-2.23628l134.23729,0c1.26924,0 2.23628,1.02748 2.23628,2.23628l0,41.28053c0,1.2088 -1.02748,2.23628 -2.23628,2.23628z" id="svg_48"/>
     <g stroke="null" id="svg_49">
      <path stroke="null" class="st13" d="m1267.72022,813.39318l-3.26376,0c-0.66484,0 -1.26924,-0.54396 -1.26924,-1.26924l0,-2.65936c0,-0.66484 0.54396,-1.26924 1.26924,-1.26924l3.26376,0c0.66484,0 1.26924,0.54396 1.26924,1.26924l0,2.65936c0,0.72528 -0.54396,1.26924 -1.26924,1.26924z" id="svg_50"/>
      <path stroke="null" class="st13" d="m1278.17635,813.39318l-3.26376,0c-0.66484,0 -1.26924,-0.54396 -1.26924,-1.26924l0,-2.65936c0,-0.66484 0.54396,-1.26924 1.26924,-1.26924l3.26376,0c0.66484,0 1.26924,0.54396 1.26924,1.26924l0,2.65936c0,0.72528 -0.54396,1.26924 -1.26924,1.26924z" id="svg_51"/>
      <path stroke="null" class="st13" d="m1288.63247,813.39318l-3.26376,0c-0.66484,0 -1.26924,-0.54396 -1.26924,-1.26924l0,-2.65936c0,-0.66484 0.54396,-1.26924 1.26924,-1.26924l3.26376,0c0.66484,0 1.26924,0.54396 1.26924,1.26924l0,2.65936c0,0.72528 -0.54396,1.26924 -1.26924,1.26924z" id="svg_52"/>
     </g>
     <path stroke="null" class="st14" d="m1394.34207,830.7999l-73.37419,0c-1.2088,0 -2.17584,-0.96704 -2.17584,-2.17584c0,-1.2088 0.96704,-2.17584 2.17584,-2.17584l73.37419,0c1.2088,0 2.17584,0.96704 2.17584,2.17584c0,1.2088 -0.96704,2.17584 -2.17584,2.17584z" id="svg_53"/>
     <path stroke="null" class="st14" d="m1339.09989,864.70676l-73.37419,0c-1.2088,0 -2.17584,-0.96704 -2.17584,-2.17584c0,-1.2088 0.96704,-2.17584 2.17584,-2.17584l73.37419,0c1.2088,0 2.17584,0.96704 2.17584,2.17584c0.06044,1.2088 -0.96704,2.17584 -2.17584,2.17584z" id="svg_54"/>
     <path stroke="null" class="st14" d="m1352.63845,864.70676l-7.61544,0c-0.42308,0 -0.72528,-0.36264 -0.72528,-0.72528l0,-2.90112c0,-0.42308 0.36264,-0.72528 0.72528,-0.72528l7.61544,0c0.42308,0 0.72528,0.36264 0.72528,0.72528l0,2.90112c0,0.36264 -0.3022,0.72528 -0.72528,0.72528z" id="svg_55"/>
     <path stroke="null" class="st14" d="m1364.06162,864.70676l-7.61544,0c-0.42308,0 -0.72528,-0.36264 -0.72528,-0.72528l0,-2.90112c0,-0.42308 0.36264,-0.72528 0.72528,-0.72528l7.61544,0c0.42308,0 0.72528,0.36264 0.72528,0.72528l0,2.90112c0.06044,0.36264 -0.3022,0.72528 -0.72528,0.72528z" id="svg_56"/>
     <path stroke="null" class="st14" d="m1395.00691,840.40987l-121.54488,0c-0.84616,0 -1.511,-0.66484 -1.511,-1.511c0,-0.84616 0.66484,-1.511 1.511,-1.511l121.54488,0c0.84616,0 1.511,0.66484 1.511,1.511c0,0.84616 -0.66484,1.511 -1.511,1.511z" id="svg_57"/>
     <path stroke="null" class="st14" d="m1395.00691,846.81651l-121.54488,0c-0.84616,0 -1.511,-0.66484 -1.511,-1.511c0,-0.84616 0.66484,-1.511 1.511,-1.511l121.54488,0c0.84616,0 1.511,0.66484 1.511,1.511c0,0.84616 -0.66484,1.511 -1.511,1.511z" id="svg_58"/>
    </g>
   </g>
   <g stroke="null" id="svg_59">
    <path stroke="null" class="st15" d="m1456.17221,853.46491c0,10.51656 -8.52204,19.03861 -19.03861,19.03861c-10.51656,0 -19.03861,-8.52204 -19.03861,-19.03861c0,-10.51656 8.52204,-19.03861 19.03861,-19.03861c10.51656,0 19.03861,8.52204 19.03861,19.03861z" id="svg_60"/>
    <g stroke="null" id="svg_61">
     <path stroke="null" class="st13" d="m1435.25996,860.47595c0,0 -0.06044,0 0,0c-0.42308,0 -0.84616,-0.18132 -1.08792,-0.48352l-5.19784,-5.86268c-0.54396,-0.6044 -0.48352,-1.511 0.12088,-2.05496c0.6044,-0.54396 1.511,-0.48352 2.05496,0.12088l4.17036,4.71432l9.9726,-9.73084c0.54396,-0.54396 1.511,-0.54396 2.05496,0c0.54396,0.54396 0.54396,1.511 0,2.05496l-11.06052,10.81876c-0.3022,0.3022 -0.66484,0.42308 -1.02748,0.42308z" id="svg_62"/>
    </g>
   </g>
   <g stroke="null" id="svg_63">
    <path stroke="null" class="st14" d="m1578.26106,764.98072l-121.1218,0c-3.08244,0 -5.62092,-2.53848 -5.62092,-5.62092l0,-43.27506c0,-3.08244 2.53848,-5.62092 5.62092,-5.62092l121.1218,0c3.08244,0 5.62092,2.53848 5.62092,5.62092l0,43.27506c0.06044,3.08244 -2.47804,5.62092 -5.62092,5.62092z" id="svg_64"/>
    <path stroke="null" class="st14" d="m1467.4745,756.70044l0,30.09913l34.69257,-34.69257c0,0 -33.96729,4.59344 -34.69257,4.59344z" id="svg_65"/>
    <path stroke="null" class="st13" d="m1572.27749,759.54112l-109.15468,0c-2.65936,0 -4.77476,-2.17584 -4.77476,-4.77476l0,-34.20905c0,-2.65936 2.17584,-4.77476 4.77476,-4.77476l109.15468,0c2.65936,0 4.77476,2.17584 4.77476,4.77476l0,34.20905c0,2.59892 -2.1154,4.77476 -4.77476,4.77476z" id="svg_66"/>
    <path stroke="null" class="st14" d="m1523.01888,726.60131l-53.6103,0c-1.26924,0 -2.35716,-1.08792 -2.35716,-2.35716c0,-1.26924 1.08792,-2.35716 2.35716,-2.35716l53.6103,0c1.26924,0 2.35716,1.08792 2.35716,2.35716c-0.06044,1.32968 -1.08792,2.35716 -2.35716,2.35716z" id="svg_67"/>
    <path stroke="null" class="st14" d="m1567.80493,735.60687l-99.48428,0c-0.72528,0 -1.32968,-0.6044 -1.32968,-1.32968l0,0c0,-0.72528 0.6044,-1.32968 1.32968,-1.32968l99.48428,0c0.72528,0 1.32968,0.6044 1.32968,1.32968l0,0c-0.06044,0.72528 -0.6044,1.32968 -1.32968,1.32968z" id="svg_68"/>
    <path stroke="null" class="st14" d="m1567.80493,740.74427l-99.48428,0c-0.72528,0 -1.32968,-0.6044 -1.32968,-1.32968l0,0c0,-0.72528 0.6044,-1.32968 1.32968,-1.32968l99.48428,0c0.72528,0 1.32968,0.6044 1.32968,1.32968l0,0c-0.06044,0.72528 -0.6044,1.32968 -1.32968,1.32968z" id="svg_69"/>
    <g stroke="null" id="svg_70">
     <path stroke="null" class="st14" d="m1547.25532,757.66748l-3.26376,0c-0.66484,0 -1.26924,-0.54396 -1.26924,-1.26924l0,-2.65936c0,-0.66484 0.54396,-1.26924 1.26924,-1.26924l3.26376,0c0.66484,0 1.26924,0.54396 1.26924,1.26924l0,2.65936c-0.06044,0.72528 -0.6044,1.26924 -1.26924,1.26924z" id="svg_71"/>
     <path stroke="null" class="st14" d="m1557.71145,757.66748l-3.26376,0c-0.66484,0 -1.26924,-0.54396 -1.26924,-1.26924l0,-2.65936c0,-0.66484 0.54396,-1.26924 1.26924,-1.26924l3.26376,0c0.66484,0 1.26924,0.54396 1.26924,1.26924l0,2.65936c-0.06044,0.72528 -0.6044,1.26924 -1.26924,1.26924z" id="svg_72"/>
     <path stroke="null" class="st14" d="m1568.16757,757.66748l-3.26376,0c-0.66484,0 -1.26924,-0.54396 -1.26924,-1.26924l0,-2.65936c0,-0.66484 0.54396,-1.26924 1.26924,-1.26924l3.26376,0c0.66484,0 1.26924,0.54396 1.26924,1.26924l0,2.65936c-0.06044,0.72528 -0.6044,1.26924 -1.26924,1.26924z" id="svg_73"/>
    </g>
   </g>
  </g>
 </g>
</svg>