<?xml version="1.0" encoding="utf-8"?>
<!-- Generator: Adobe Illustrator 22.1.0, SVG Export Plug-In . SVG Version: 6.00 Build 0)  -->
<svg version="1.1" id="Слой_1" xmlns="http://www.w3.org/2000/svg" xmlns:xlink="http://www.w3.org/1999/xlink" x="0px" y="0px"
	 viewBox="0 0 3200 2000" style="enable-background:new 0 0 3200 2000;" xml:space="preserve">
<style type="text/css">
	.st0{fill:#FFFFFF;}
	.st1{fill:#E7F3FE;}
	.st2{fill:#303C60;}
	.st3{fill:#F09959;}
	.st4{fill:#6791C9;}
	.st5{fill:#75A1DE;}
	.st6{opacity:0.5;fill:#6791C9;}
	.st7{fill:#E38540;}
	.st8{fill:#F5CE5C;}
	.st9{fill:#4381DB;}
	.st10{fill:#2E5B9A;}
	.st11{fill:#9CBEED;}
	.st12{fill:#DBE5EB;}
	.st13{fill:#F37168;}
	.st14{fill:#F2E5DE;}
	.st15{fill:#7BCEE8;}
	.st16{fill:#9EC8FF;}
	.st17{fill:#9CD499;}
	.st18{fill:#74B570;}
	.st19{fill:#A2DFF2;}
</style>
<rect x="1322.2" y="606.8" class="st0" width="583.6" height="870.1"/>
<g>
	<path class="st1" d="M1441.9,1119.7c0,0-109.6-68.8-34.7-142.6s175.1-149.2,242.3-120c67.2,29.2,61.1,66.1,134.9,119.5
		c73.8,53.4,56.7,95.8,43.5,117.3s-15.4,27-15.4,27L1441.9,1119.7z"/>
	<path class="st2" d="M1525.6,924.3c16.2-14.5,28.1-5.8,37,3.8c7.1,7.7,8.1,9.4,13.9,17.3c0.9,1.2,1.5,2.5,1.6,4
		c0.2,8.8,4.7,46-0.3,58.8c-5.8,15-77.7,21.8-77.7,21.8L1525.6,924.3z"/>
	<g>
		<path class="st2" d="M1571.6,1016.8c-0.4,0-0.7-0.3-0.7-0.7c0-0.4,0.3-0.8,0.7-0.8c2.1-0.1,3.9-1.1,5.3-2.9
			c8.1-10.4,3.5-45.3-0.4-64.3c-0.1-0.4,0.2-0.8,0.6-0.9c0.4-0.1,0.8,0.2,0.9,0.6c0.9,4.1,3.7,18.8,4.6,34.2
			c0.9,15.7-0.6,26.3-4.5,31.3C1576.4,1015.5,1574.2,1016.6,1571.6,1016.8C1571.7,1016.8,1571.7,1016.8,1571.6,1016.8z"/>
	</g>
	<path class="st2" d="M1531.7,920c-31.2,17.2-12.2,75.6-51.7,96.3c-11,5.8-44.6,35-22.6,73.5c14.4,25.2,57.6,19.8,71.7-2.5
		C1543.3,1065,1531.7,920,1531.7,920z"/>
	<g>
		<path class="st2" d="M1448.7,1052.6C1448.7,1052.6,1448.6,1052.6,1448.7,1052.6c-0.5-0.1-0.8-0.4-0.7-0.8c0-0.2,0.7-5.1,3.8-11.6
			c2.9-6,8.4-14.5,18.7-21c18.3-11.6,30.4-22.6,44.8-76.7c0.1-0.4,0.5-0.6,0.9-0.5c0.4,0.1,0.6,0.5,0.5,0.9
			c-6.9,26.1-13.8,43.8-21.7,55.6c-7.3,11-14.8,16.2-23.8,22c-19,12.1-21.8,31.4-21.8,31.6
			C1449.4,1052.3,1449.1,1052.6,1448.7,1052.6z"/>
	</g>
	<g>
		<path class="st2" d="M1449.4,1037.5c-0.1,0-0.3,0-0.4-0.1c-0.3-0.2-0.4-0.7-0.2-1c4.5-7.2,10.3-13,17.1-17.5
			c25.7-16.6,30-26.2,51.2-80.9c0.1-0.4,0.6-0.6,1-0.4c0.4,0.1,0.6,0.6,0.4,1c-10.6,27.4-17,43.4-23.9,54.8
			c-7.5,12.2-15.9,19.1-27.9,26.8c-6.7,4.3-12.3,10-16.7,17C1449.9,1037.4,1449.6,1037.5,1449.4,1037.5z"/>
	</g>
	<path class="st3" d="M1530.6,956.4c-10.7,22.3-9.1,42.5-9.1,42.5s1.2,7.8,6.2,9.5c5,1.7,12-3.3,11.6-9.9
		c-0.4-6.6,1.7-22.7,4.1-28.5C1545.9,964.3,1530.6,956.4,1530.6,956.4z"/>
	<path class="st4" d="M1473.9,1111.4c0.7,6.1-0.8,5.6,4.6,6.6c5.4,1,15-2.7,15-2.7l-10.8-20.1L1473.9,1111.4z"/>
	<path class="st3" d="M1522.8,987c-3,9.9-25.9,2.3-33.8,4.6c-8,2.3-14.8,35.7-16,65.8s0.4,54,3.4,57.8c3,3.8,53.2,5.3,57.8,3.8
		c4.6-1.5-38-20.5-38-20.5s-2.7-35,0.8-52.9c3.4-17.9,34.2-41.4,34.2-41.4L1522.8,987z"/>
	<path class="st3" d="M1533.5,990c8,12.2,28.9,10.6,36.1,20.5c7.2,9.9,22.4,64.3,22.4,64.3l16-55.1c0,0,13-2.2,8.7,6.8
		c-7.5,16-10.3,67.8-18.4,75.2c-9,8.2-18,1.5-23.1-12.8c-4.9-13.8-17.1-43.7-25.9-55.1c-8.7-11.4-18.3-29.7-18.3-29.7L1533.5,990z"
		/>
	<path class="st5" d="M1498.8,991.5c16,18.6,47.2,17.9,54,15.6c6.8-2.3,6.8-2.3,6.8-2.3s5.3-1.9,9.9,3.4
		c4.6,5.3,15.6,38.8,17.5,46.4c1.9,7.6,4.9,20.2,4.9,20.2s-8.2,9.8-8.2,19.7c0,9.9,3.5,10,3.5,10s-10.1-2.3-12.4-8.4
		c-2.3-6.1-22.8-61.2-22.8-61.2l-56.7,1.1l0.8,62.4c0,0-4.9-4.6-11.8,0c-6.8,4.6-9.1,15.2-8,16.7c1.1,1.5-2.3,1.5-2.3,0.4
		c0-1.1-6.5-28.9-1.9-74.5c4.6-45.6,13.3-50.6,18.3-51C1495.4,989.6,1498.8,991.5,1498.8,991.5z"/>
	<g>
		<path class="st4" d="M1585,1103.7c0.1,0,0.2,0,0.2,0S1585.1,1103.7,1585,1103.7z"/>
		<path class="st4" d="M1587.2,1076.2c-3.3,1-8.9,12.7-8.9,12.7s-12.7-27.6-16.5-65.9l-4.5,26c6.2,16.8,16.1,43.1,17.6,47.2
			c2.1,5.6,10.5,7.9,11.7,8.1c-0.3-0.1-1-0.5-1.6-2.2c-0.3-0.3-2.2-1.2-2.6-1.5c-3-2.8-1.8-9.4,0.3-16.7
			C1584.7,1076.5,1590.5,1075.2,1587.2,1076.2z"/>
	</g>
	<path class="st4" d="M1498.2,1036l-6.3-28.7c-6.8,9.6-7.6,42.6-4.8,65.2c2.3,18.5,5.7,23.3,8.1,25.2c0.7,0.4,1.1,0.8,1.1,0.8
		l-0.8-62.4L1498.2,1036z"/>
	<path class="st5" d="M1480,1007c11.7,31.4,5.8,37.8,21.2,74.7c8.6,20.6,25.1,36.1,25.1,36.1s13.3,3.4,30,2.3
		c16.7-1.1,29-2.3,29-2.3s-17.6-10.6-18.3-17.9c-0.8-7.2-4.1-35.9,0.2-56.2c3.4-15.8-10.5-31.7-10.5-31.7l-23.2-1.1L1480,1007z"/>
	<path class="st6" d="M1500.5,1055.2c-2-7.4,8.6,2.3,26.1,4.1c17.5,1.8,37-1,27.4,2c-9.6,3-36-1.5-31.2,8.1
		c5.7,11.3,12.4,22.3,22.1,28.9c6.3,4.3,21.5,8.4,6.8,6.1c-14.7-2.3-30.4-19.5-37.3-30.7C1507.6,1062.5,1500.9,1056.8,1500.5,1055.2
		z"/>
	<path class="st7" d="M1539.2,995.6c0.2-7.6,2-20.5,4.2-25.6c1.8-4.1-5.6-9.3-9.9-12l-3.6-0.2c-0.6,1.2-1.1,2.4-1.6,3.6
		c-3.8,25.2,7.7,35.7,13.1,37.8c2.4,0.9,5,1,7.3,0.8C1545.4,998.9,1542.1,997.5,1539.2,995.6z"/>
	<g>
		<path class="st8" d="M1532.3,1006.9c-1.3,0-2.7-0.2-4-0.5c-3.2-0.8-10.7-3.7-12.5-14.3c0-0.2,0.1-0.4,0.3-0.5
			c0.2,0,0.4,0.1,0.5,0.3c1.7,10.1,8.9,12.9,11.9,13.6c4.7,1.1,9.6,0.1,11.5-2.5c1.5-2,0.6-6.4,0.6-6.4c0-0.2,0.1-0.5,0.3-0.5
			c0.2,0,0.5,0.1,0.5,0.3c0,0.2,1,4.8-0.8,7.1C1539.1,1005.7,1535.9,1006.9,1532.3,1006.9z"/>
	</g>
	<path class="st3" d="M1568,966.3c-2.6,13.6-8.5,24.6-18.6,22.5c-10.1-2.1-20.7-16.5-17.9-30c2.8-13.6,13.2-22.9,23.3-20.8
		C1564.9,940.1,1571.5,948.2,1568,966.3z"/>
	<path class="st3" d="M1603.9,1033.6c0,0-18.6,50.1-19.5,55.3c-0.9,5.2,0.9,8.5,1.4,8.5c0.5,0,16.4-27.1,16.4-27.1L1603.9,1033.6z"
		/>
	<path class="st3" d="M1604.7,1031.4c1.5-5.1-0.8-11.5-0.8-11.5l6.8,0.8L1604.7,1031.4z"/>
	<g>
		<path class="st9" d="M1612.1,1022.8h-18.9c-1.1,0-2-1.1-1.6-2.2l11.9-39.9c0.2-0.7,0.9-1.2,1.6-1.2h18.9c1.1,0,2,1.1,1.6,2.2
			l-11.9,39.9C1613.5,1022.3,1612.9,1022.8,1612.1,1022.8z"/>
		<path class="st10" d="M1614.5,1022.8h-18.9c-1.1,0-2-1.1-1.6-2.2l11.9-39.9c0.2-0.7,0.9-1.2,1.6-1.2h18.9c1.1,0,2,1.1,1.6,2.2
			l-11.9,39.9C1615.9,1022.3,1615.2,1022.8,1614.5,1022.8z"/>
		<path class="st11" d="M1600.8,993.8c-2,7.2-3.4,13.2-3,13.3c0.3,0.1,2.2-5.7,4.3-12.9c2-7.2,3.4-13.2,3-13.3
			C1604.7,980.8,1602.8,986.6,1600.8,993.8z"/>
	</g>
	<path class="st3" d="M1613.6,1034.6c0.6-6.6,6.3-12.8,8.4-14.7c0.7-0.6,1-1.4,1-2.3c0-3.3-0.2-11-0.9-11.9c-0.9-1.2-3-16-4-15.4
		c-1,0.6,0.3,13.5,0.3,13.5s-2.4-1.2-3.7-1.7c-1.3-0.6-6.6,5.3-6.6,5.3s-2.5,6.3,4.3,3.6c8.1-3.2,2,5.7-3.4,11.5
		c-4.5,4.7-0.7,5.8-0.7,5.8l3.6-0.1L1613.6,1034.6z"/>
	<g>
		<path class="st8" d="M1611.6,1039.8c-0.6,0-1.3-0.1-2-0.3c-1.8-0.5-4.8-2.3-5.6-8c0-0.2,0.1-0.4,0.4-0.5c0.2,0,0.4,0.1,0.5,0.4
			c0.7,4.9,3,6.6,4.9,7.3c1.5,0.5,2.8,0.3,3.1,0.1c0-0.1,0.1-0.3,0.3-0.3c0.2-0.1,0.5,0,0.5,0.2c0.1,0.2,0,0.4-0.1,0.6
			C1613.2,1039.6,1612.5,1039.8,1611.6,1039.8z"/>
	</g>
	<g>
		<path class="st8" d="M1610.9,1038.2c-0.6,0-1.1,0-1.7-0.1c-3.3-0.5-5.4-2.1-6-4.5c-0.1-0.2,0.1-0.5,0.3-0.5
			c0.2-0.1,0.5,0.1,0.5,0.3c0.5,2.3,2.6,3.3,4.3,3.7c2.3,0.6,4.5,0.2,4.8-0.1c0.1-0.2,0.4-0.3,0.6-0.2c0.2,0.1,0.3,0.4,0.2,0.6
			C1613.5,1037.9,1612.3,1038.2,1610.9,1038.2z"/>
	</g>
	<g>
		<path class="st0" d="M1556.5,973.4c-0.2,0-0.4,0-0.6,0c-3.2-0.5-5.1-4.6-4.4-9.4c0.3-2.2,1.2-4.2,2.5-5.7c1.3-1.5,2.9-2.2,4.5-2
			c3.2,0.5,5.1,4.6,4.4,9.4C1562.2,970.2,1559.4,973.4,1556.5,973.4z M1557.9,957.8c-1,0-1.9,0.5-2.8,1.5c-1.1,1.2-1.8,3-2.1,4.9
			c-0.6,3.8,0.9,7.4,3.2,7.7c2.3,0.4,4.7-2.6,5.3-6.4c0.6-3.8-0.9-7.4-3.2-7.7C1558.1,957.8,1558,957.8,1557.9,957.8z"/>
	</g>
	<g>
		<path class="st0" d="M1567,973.4c-0.1,0-0.2,0-0.3,0c-2.1-0.3-3.2-3.9-2.6-8.1c0.6-4.2,2.8-7.3,4.9-6.9c1.1,0.2,1.9,1.2,2.4,2.8
			c0.4,1.5,0.5,3.4,0.2,5.3C1571,970.5,1569,973.4,1567,973.4z M1568.7,959.5c-1.2,0-2.9,2.4-3.5,6c-0.6,3.8,0.4,6.6,1.6,6.8
			c1.3,0.2,3-2.2,3.6-6c0.3-1.8,0.2-3.5-0.2-4.8c-0.3-1.2-0.9-1.9-1.5-2C1568.8,959.5,1568.8,959.5,1568.7,959.5z"/>
	</g>
	<g>
		<path class="st0" d="M1553,960.8c-0.1,0-0.1,0-0.2,0l-24.8-7.1c-0.4-0.1-0.6-0.5-0.5-0.9c0.1-0.4,0.5-0.6,0.9-0.5l24.8,7.1
			c0.4,0.1,0.6,0.5,0.5,0.9C1553.6,960.6,1553.3,960.8,1553,960.8z"/>
	</g>
	<path class="st2" d="M1570.7,945.4c-38.5,22.6-40.6,7.4-40.6,7.4l2.3-21.6l22.8,1.3L1570.7,945.4z"/>
	<path class="st3" d="M1533.1,957.8c0.9,3.8-0.3,7.4-2.7,7.9c-2.4,0.6-5.1-2.1-6-5.9c-0.9-3.8,0.3-7.4,2.7-7.9
		C1529.6,951.4,1532.2,954,1533.1,957.8z"/>
	<path class="st8" d="M1530.5,962.9c0,0.8-0.7,1.5-1.5,1.5c-0.8,0-1.5-0.7-1.5-1.5c0-0.8,0.7-1.5,1.5-1.5
		C1529.8,961.4,1530.5,962,1530.5,962.9z"/>
	<path class="st10" d="M1827.1,1124.7h-384.6c-1.9,0-3.5-1.6-3.5-3.5c0-1.9,1.6-3.5,3.5-3.5h384.6c1.9,0,3.5,1.6,3.5,3.5
		C1830.7,1123.1,1829.1,1124.7,1827.1,1124.7z"/>
	<path class="st12" d="M1533.7,1116.9c0,0-14.5,0.2-14.7,1.5c-0.2,1.3,0.6,1.8,5.7,2.8c5.1,0.9,63,1.3,63.5,0.9s17.4-4.4,17.4-4.4
		l-40.6-0.7H1533.7z"/>
	<path class="st3" d="M1541.6,1107.3c0,0,10.4-4.6,13.4-2.5c3,2,11.8,11.3,11.8,11.3L1541.6,1107.3z"/>
	<path class="st10" d="M1566.3,1116.9c-0.2,0.2-0.5,0.4-0.7,0.2l-21.4-15.9c-1.2-0.9-1.7-2.2-1.1-2.9c0.6-0.7,2-0.4,3,0.5l20.2,17.4
		C1566.5,1116.4,1566.5,1116.7,1566.3,1116.9z"/>
	<path class="st3" d="M1510.1,1105.4c0,0,17.2,6.8,19.3,6.8c2,0,13.4-7.6,17.2-6.6s22.4,10.4,21.9,11.2c-0.5,0.8-5.8,2.5-21.5,2
		c-15.7-0.5-41.3-2.8-41.3-2.8L1510.1,1105.4z"/>
	<path class="st13" d="M1723.2,1117.9h-66.5c-1.6,0-3-1.3-3-3v-8.9c0-1.6,1.3-3,3-3h66.5c4.1,0,7.4,3.3,7.4,7.4l0,0
		C1730.6,1114.6,1727.3,1117.9,1723.2,1117.9z"/>
	<path class="st14" d="M1720.4,1105.6h-66.7c-0.5,0.8-0.7,1.7-0.7,2.6v4.5c0,1,0.3,1.9,0.7,2.6h66.7c2.4,0,4.3-1.9,4.3-4.3v-1.2
		C1724.7,1107.5,1722.8,1105.6,1720.4,1105.6z"/>
	<path class="st15" d="M1722.2,1103.1h-51.6c-1,0-1.8-0.8-1.8-1.8v-5.4c0-1,0.8-1.8,1.8-1.8h51.6c2.5,0,4.5,2,4.5,4.5l0,0
		C1726.7,1101,1724.7,1103.1,1722.2,1103.1z"/>
	<path class="st14" d="M1719,1095.6h-50.2c-0.4,0.5-0.6,1-0.6,1.6v2.7c0,0.6,0.2,1.1,0.6,1.6h50.2c1.8,0,3.2-1.2,3.2-2.6v-0.7
		C1722.3,1096.8,1720.8,1095.6,1719,1095.6z"/>
	<g>
		<path class="st16" d="M1732.6,912.2h-57c-1.8,0-2.8-1.5-2.1-3.3l8.6-23.7c0.7-1.8,2.7-3.3,4.5-3.3h57c1.8,0,2.8,1.5,2.1,3.3
			l-8.6,23.7C1736.5,910.7,1734.5,912.2,1732.6,912.2z"/>
		<path class="st0" d="M1730.7,909.7h-51.3c-1.6,0-2.4-1.3-1.8-2.9l7.1-19.6c0.6-1.6,2.3-2.9,3.9-2.9h51.3c1.6,0,2.4,1.3,1.8,2.9
			l-7.1,19.6C1734,908.4,1732.3,909.7,1730.7,909.7z"/>
		<path class="st16" d="M1698.3,910.8c-4.7,12.5-12,16.3-12,16.3s5.2-7.2,4.4-10.6c-0.7-3.5-3.5-5-3.5-5L1698.3,910.8z"/>
		<path class="st16" d="M1734.8,891.4h-33.1c-0.5,0-0.8-0.4-0.6-1l0,0c0.2-0.5,0.8-1,1.3-1h33.1c0.5,0,0.8,0.4,0.6,1l0,0
			C1736,890.9,1735.4,891.4,1734.8,891.4z"/>
		<path class="st16" d="M1733.3,895.6h-33.1c-0.5,0-0.8-0.4-0.6-1l0,0c0.2-0.5,0.8-1,1.3-1h33.1c0.5,0,0.8,0.4,0.6,1l0,0
			C1734.4,895.2,1733.8,895.6,1733.3,895.6z"/>
		<path class="st16" d="M1731.6,900.4h-33.1c-0.5,0-0.8-0.4-0.6-1l0,0c0.2-0.5,0.8-1,1.3-1h33.1c0.5,0,0.8,0.4,0.6,1l0,0
			C1732.7,899.9,1732.1,900.4,1731.6,900.4z"/>
		<path class="st16" d="M1696.6,894.8c-1.3,3.6-4.8,6.5-7.7,6.5c-2.9,0-4.3-2.9-3-6.5c1.3-3.6,4.8-6.5,7.7-6.5
			C1696.6,888.3,1697.9,891.2,1696.6,894.8z"/>
	</g>
	<g>
		<path class="st16" d="M1700.3,973.8h-2.8c-0.6,0-0.9-0.5-0.7-1.1l0.8-2.3c0.2-0.6,0.9-1.1,1.5-1.1h2.8c0.6,0,0.9,0.5,0.7,1.1
			l-0.8,2.3C1701.5,973.3,1700.8,973.8,1700.3,973.8z"/>
		<path class="st16" d="M1709.3,973.8h-2.8c-0.6,0-0.9-0.5-0.7-1.1l0.8-2.3c0.2-0.6,0.9-1.1,1.5-1.1h2.8c0.6,0,0.9,0.5,0.7,1.1
			l-0.8,2.3C1710.6,973.3,1709.9,973.8,1709.3,973.8z"/>
		<path class="st16" d="M1718.4,973.8h-2.8c-0.6,0-0.9-0.5-0.7-1.1l0.8-2.3c0.2-0.6,0.9-1.1,1.5-1.1h2.8c0.6,0,0.9,0.5,0.7,1.1
			l-0.8,2.3C1719.6,973.3,1719,973.8,1718.4,973.8z"/>
	</g>
	<g>
		<path class="st16" d="M1664.3,955.9h-57c-1.8,0-2.8-1.5-2.1-3.3l8.6-23.7c0.7-1.8,2.7-3.3,4.5-3.3h57c1.8,0,2.8,1.5,2.1,3.3
			l-8.6,23.7C1668.2,954.4,1666.2,955.9,1664.3,955.9z"/>
		<path class="st0" d="M1662.4,953.4h-51.3c-1.6,0-2.4-1.3-1.8-2.9l7.1-19.6c0.6-1.6,2.3-2.9,3.9-2.9h51.3c1.6,0,2.4,1.3,1.8,2.9
			l-7.1,19.6C1665.7,952.1,1664,953.4,1662.4,953.4z"/>
		<path class="st16" d="M1610.2,954.5c-4.4,12.5,0.1,16.3,0.1,16.3s0-7.2,3.3-10.6c3.3-3.5,7.1-5,7.1-5L1610.2,954.5z"/>
		<path class="st16" d="M1648.5,936.7h-27.9c-0.5,0-0.8-0.4-0.6-0.9l0.1-0.2c0.2-0.5,0.7-0.9,1.2-0.9h27.9c0.5,0,0.8,0.4,0.6,0.9
			l-0.1,0.2C1649.5,936.3,1649,936.7,1648.5,936.7z"/>
		<path class="st16" d="M1646.9,940.9H1619c-0.5,0-0.8-0.4-0.6-0.9l0.1-0.2c0.2-0.5,0.7-0.9,1.2-0.9h27.9c0.5,0,0.8,0.4,0.6,0.9
			l-0.1,0.2C1648,940.5,1647.4,940.9,1646.9,940.9z"/>
		<path class="st16" d="M1645.2,945.7h-27.9c-0.5,0-0.8-0.4-0.6-0.9l0.1-0.2c0.2-0.5,0.7-0.9,1.2-0.9h27.9c0.5,0,0.8,0.4,0.6,0.9
			l-0.1,0.2C1646.3,945.3,1645.7,945.7,1645.2,945.7z"/>
		<path class="st16" d="M1716.3,982.7h-55c-1,0-1.5-0.4-1.1-0.9l0.1-0.2c0.4-0.5,1.5-0.9,2.4-0.9h55c1,0,1.5,0.4,1.1,0.9l-0.1,0.2
			C1718.3,982.3,1717.2,982.7,1716.3,982.7z"/>
		<path class="st16" d="M1713.2,989.7h-55c-1,0-1.5-0.4-1.1-0.9l0.1-0.2c0.4-0.5,1.5-0.9,2.4-0.9h55c1,0,1.5,0.4,1.1,0.9l-0.1,0.2
			C1715.3,989.3,1714.2,989.7,1713.2,989.7z"/>
		<path class="st16" d="M1658.2,947.4h-4c-1.8,0-2.8-1.5-2.1-3.3l3-8.3c0.7-1.8,2.7-3.3,4.5-3.3h4c1.8,0,2.8,1.5,2.1,3.3l-3,8.3
			C1662,945.9,1660,947.4,1658.2,947.4z"/>
	</g>
	<g>
		<path class="st17" d="M1799,1107c7.3-40.2,5.7-54.6-13.9-87.4c-19.6-32.8-21.5-93.9-28.9-76c-7.4,17.9-6.4,62.9,16.8,84.8
			c23.2,21.8,26.3,31.6,27.7,40.5c1.4,8.9-3.3,36.2-3.3,36.2L1799,1107z"/>
		<path class="st18" d="M1802.7,1081.1c0-0.2,0-0.3,0-0.5c-0.4-3.3-2.8-20.3-6-27c-3.6-7.4-19.3-20.4-23.7-36.6s-11.4-28.8-16-39.1
			c-6-13.5-2.7-31.6,2.3-37.4c-0.1-0.1-0.2-0.1-0.4-0.2l-1.7,1c-0.4,0.5-0.7,1.2-1.1,2.2c-7.4,17.9-6.4,62.9,16.8,84.8
			c23.2,21.8,26.3,31.6,27.7,40.5c0.4,2.4,0.3,6.1,0,10.3L1802.7,1081.1z"/>
		<path class="st17" d="M1789,1099.9c5.5-47.3,3.6-63.6-6.9-101.4c-10.5-37.8,58.2-124,56-109.1c-2.2,14.9-9.5,52-28.4,75.3
			c-18.9,23.3-20.4,42.2-16.7,62.2c3.6,20-0.7,66.5-0.7,66.5l-2.2,8.4L1789,1099.9z"/>
		<g>
			<path class="st18" d="M1791.5,1080.2C1791.5,1080.2,1791.5,1080.2,1791.5,1080.2c-0.3,0-0.5-0.2-0.5-0.5c0-0.1,0.5-14.7,0.3-26.7
				c-0.3-12-3.5-32.5-5.5-39.5c-1.8-6.4-4.1-27.9,6.9-50.2c5.5-11.1,9.8-18.1,15.9-27.8c6-9.6,13.4-21.5,25.2-42.5
				c0.1-0.2,0.4-0.3,0.6-0.2c0.2,0.1,0.3,0.4,0.2,0.6c-11.8,21-19.2,32.9-25.2,42.5c-6,9.7-10.4,16.6-15.8,27.7
				c-10.8,22-8.6,43.2-6.9,49.5c2,7.1,5.2,27.7,5.5,39.8c0.3,12-0.3,26.6-0.3,26.7C1792,1080,1791.8,1080.2,1791.5,1080.2z"/>
		</g>
		<path class="st17" d="M1790.8,1116.9c3.3-31.6,3.8-16-9.8-59c-15.6-49.2,39.9-92.9,49-75c9.1,17.8,19.6,73.8,15.6,72
			c-4-1.8-30.5-53.8-31.3-51.6c-0.7,2.2-36,20.4-34.5,38.9c1.5,18.5,14.9,48,14.9,48l-0.4,27.2L1790.8,1116.9z"/>
		<g>
			<path class="st18" d="M1794.5,1116.9C1794.5,1116.9,1794.5,1116.9,1794.5,1116.9l-3.7-0.4c-0.1,0-0.2-0.1-0.3-0.2
				c-0.1-0.1-0.1-0.2-0.1-0.3c0.4-3.7,0.7-6.7,1-9.2c1.5-13.4,1.5-13.4-2.6-24.9c-1.9-5.2-4.5-12.3-8.1-23.9
				c-2.7-8.6-3.4-17.6-2.1-26.6c1.2-7.9,3.9-15.8,8.1-23.3c7.2-12.9,18.5-23.9,28.9-28.2c7.2-2.9,12.7-2,15,2.6
				c3.9,7.6,8.5,23,12.3,41.4c2.2,10.6,5.5,29.1,3.7,31c-0.3,0.3-0.6,0.3-1,0.2c-2.2-1-9.4-13.7-19.4-31.6c-5-9-10.2-18.2-11.5-19.8
				c-0.6,0.6-2,1.6-4.9,3.6c-9.9,6.7-30.4,20.6-29.3,34.7c1.4,18.2,14.7,47.5,14.9,47.8c0,0.1,0,0.1,0,0.2l-0.4,26.3
				c0,0.1-0.1,0.2-0.2,0.3C1794.7,1116.8,1794.6,1116.9,1794.5,1116.9z M1791.3,1115.6l2.7,0.3l0.4-25.7
				c-0.8-1.9-13.5-30.2-14.9-48.1c-1.1-14.6,19.7-28.7,29.7-35.5c2.4-1.6,4.6-3.1,4.8-3.6c0.1-0.2,0.2-0.3,0.5-0.4
				c0.9-0.1,2.6,2.8,12.5,20.5c7.1,12.7,16.7,30,18.9,31.2c0.2-0.3,0.7-1.8-0.3-9.4c-0.7-5.6-2-12.9-3.6-20.6
				c-3.9-18.4-8.5-33.8-12.3-41.3c-2.1-4.1-7.2-4.9-13.8-2.2c-18.1,7.4-45.9,40.4-34.3,76.9c3.6,11.5,6.2,18.6,8.1,23.8
				c4.2,11.7,4.2,11.7,2.7,25.3C1792,1109.4,1791.7,1112.2,1791.3,1115.6z"/>
		</g>
		<path class="st15" d="M1802.3,1118.2h-16.5c-1.1,0-2.1-0.6-2.3-1.4l-5.5-41.7c-0.3-1.9,1-3.5,2.8-3.5h26.4c1.8,0,3.1,1.6,2.8,3.5
			l-5.5,41.7C1804.4,1117.5,1803.4,1118.2,1802.3,1118.2z"/>
		<path class="st19" d="M1800.3,1116.7h-2.4c-1.2,0-2.1-0.7-2.1-1.5l0.8-36c0-1.8,1.5-3.3,3.3-3.3h3.6c1.8,0,3,1.5,2.8,3.3l-3.8,36
			C1802.5,1116.1,1801.5,1116.7,1800.3,1116.7z"/>
		<g>
			<path class="st18" d="M1782.7,1058.4l0.3-0.5c-1.1-3.9-2-7.7-2.5-11.3C1781.1,1053.4,1782.7,1058.4,1782.7,1058.4z"/>
			<path class="st18" d="M1782.7,1027.9c-1.1,2.7-1.7,5.5-2.1,8.2c4.9-16,32-30.4,33.8-32.9l0.3-0.6
				C1804.5,999.8,1788.2,1014.2,1782.7,1027.9z"/>
		</g>
		<g>
			<path class="st18" d="M1845.8,1053.8c-0.2,0-0.4-0.1-0.4-0.3l-4.9-20c-3.8-15.7-8.6-35.3-14-44c-0.9-1.4-4.8-3.4-10.2-3
				c-7.4,0.5-21.7,5.6-34.1,34c-0.1,0.2-0.4,0.3-0.6,0.2c-0.2-0.1-0.3-0.4-0.2-0.6c12.6-28.8,27.3-34,34.9-34.6
				c5.9-0.4,10,1.7,11.1,3.4c5.5,8.8,10.1,27.6,14.1,44.2l4.9,20c0.1,0.2-0.1,0.5-0.3,0.6
				C1845.8,1053.8,1845.8,1053.8,1845.8,1053.8z"/>
		</g>
		<g>
			<path class="st18" d="M1831.3,1027.7C1831.3,1027.7,1831.3,1027.7,1831.3,1027.7c-0.3,0-0.5-0.3-0.5-0.5c0-0.2,1.9-16.6-2.5-34
				c-0.1-0.2,0.1-0.5,0.3-0.6c0.2-0.1,0.5,0.1,0.6,0.3c4.4,17.5,2.5,34.1,2.5,34.3C1831.7,1027.5,1831.6,1027.7,1831.3,1027.7z"/>
		</g>
		<g>
			<path class="st18" d="M1826.2,1017.5C1826.2,1017.5,1826.2,1017.5,1826.2,1017.5c-0.3,0-0.5-0.3-0.5-0.5c0-0.2,1.8-15.2,0.5-27.7
				c0-0.3,0.2-0.5,0.4-0.5c0.2,0,0.5,0.2,0.5,0.4c1.2,12.6-0.5,27.8-0.6,27.9C1826.7,1017.3,1826.5,1017.5,1826.2,1017.5z"/>
		</g>
		<g>
			<path class="st18" d="M1808.9,936.5c-0.2,0-0.3-0.1-0.4-0.3c-0.1-0.2,0-0.5,0.2-0.6c0.1-0.1,13.2-6.4,20.7-20.5
				c0.1-0.2,0.4-0.3,0.6-0.2c0.2,0.1,0.3,0.4,0.2,0.6c-7.7,14.3-21,20.8-21.1,20.8C1809,936.5,1809,936.5,1808.9,936.5z"/>
		</g>
		<g>
			<path class="st18" d="M1799.2,953c-0.2,0-0.4-0.1-0.4-0.4c-0.1-0.2,0.1-0.5,0.4-0.5c0.1,0,10.8-2.3,23.5-12.6
				c0.2-0.2,0.5-0.1,0.6,0.1c0.2,0.2,0.1,0.5-0.1,0.6C1810.3,950.7,1799.4,953,1799.2,953C1799.3,953,1799.3,953,1799.2,953z"/>
		</g>
		<g>
			<path class="st18" d="M1791.3,969c-0.2,0-0.3,0-0.3,0c-0.3,0-0.4-0.2-0.4-0.5c0-0.3,0.2-0.4,0.5-0.4c0.1,0,7.4,0.4,19.2-8.4
				c0.2-0.2,0.5-0.1,0.6,0.1c0.2,0.2,0.1,0.5-0.1,0.6C1800,968.5,1792.9,969,1791.3,969z"/>
		</g>
	</g>
</g>
</svg>
